<?xml version="1.0" encoding="UTF-8"?>
<!DOCTYPE svg PUBLIC "-//W3C//DTD SVG 1.0//EN" "http://www.w3.org/TR/2001/REC-SVG-20010904/DTD/svg10.dtd">
<svg version="1.0" viewBox="0 0 548.73 548.7" xmlns="http://www.w3.org/2000/svg">
 <defs>
  <radialGradient id="j" cx="99.958" cy="139.37" r="45.07" gradientTransform="matrix(-.21405 1.3758 -1.2457 -.19403 303.11 18.168)" gradientUnits="userSpaceOnUse">
   <stop stop-opacity="0" offset="0"/>
   <stop stop-opacity=".023529" offset=".4927"/>
   <stop stop-opacity=".035294" offset=".57087"/>
   <stop stop-opacity=".066667" offset=".63646"/>
   <stop stop-opacity=".14894" offset=".69579"/>
   <stop stop-opacity=".21277" offset=".7303"/>
   <stop stop-opacity=".5461" offset="1"/>
  </radialGradient>
  <clipPath id="i">
   <path d="m0 0z"/>
  </clipPath>
  <clipPath id="h">
   <path d="m0 0z"/>
  </clipPath>
  <clipPath id="g">
   <path d="m0 0z"/>
  </clipPath>
  <clipPath id="f">
   <path d="m0 0z"/>
  </clipPath>
 </defs>
 <g transform="translate(252.82 252.81)">
  <g transform="matrix(12.743 0 0 12.743 -252.94 -252.96)">
   <path d="m42.952 21.548c0.05884-7.3821-4.0106-14.606-10.354-18.371-6.3971-3.9517-14.881-4.1293-21.441-0.45678-6.5378 3.5134-10.966 10.656-11.125 18.088-0.37923 7.8312 4.0186 15.648 10.879 19.42 6.5106 3.7802 15.028 3.7047 21.472-0.19087 6.474-3.7254 10.624-11.017 10.569-18.49z" fill="#fff"/>
   <path d="m25.133 35.127 0.001733 0.039884-0.17341 0.13353-0.074568-0.005203-0.024277 0.069365-0.032948-0.005202-0.031214 0.027746-0.053758-0.039885-0.071099-0.11965 0.045087-0.045087 0.034683 0.034683-0.003469 0.050289 0.078035 0.020809 0.057226-0.043353-0.02948-0.03815 0.060694 0.026012 0.010405-0.052024-0.078036-0.057226-0.006935-0.052023 0.053757 0.05029h0.050289l0.008671-0.046822 0.043352 0.048555 0.13526 0.003469z" fill="#b9b9b9"/>
   <path d="m24.972 35.347 0.081503-0.031214 0.032949-0.069364 0.0763-0.005203 0.039885-0.13353 0.064162 0.005203 0.006936 0.060694 0.067631 0.057225 0.052023-0.001733 0.027746 0.050289-0.02948 0.020809-0.064162 0.003468-0.071099 0.034682-0.069364-0.060694-0.001734 0.027747 0.034682 0.052023-0.036417 0.057225-0.058959-0.074566-0.003468 0.093642-0.036417-0.020809-0.032948 0.036416 0.001734-0.055492-0.027745 0.027746-0.053758-0.074567z" fill="#b9b9b9"/>
   <path d="m23.534 36.032-0.004459 0.093536-0.084795 0.03068-0.10607-0.032832-0.11119 0.001643-0.028705 0.019465-0.046189-0.050812 0.010885 0.063018-0.054606 0.052951-0.033983-0.015508-0.001647-0.038272-0.03283 0.033156-0.10244-0.036132-0.007585-0.059389-0.11399-0.085292 0.025733 0.042892-0.083639 0.00643-0.048733 0.007273-0.10337 0.020001-0.007649-0.024161 0.030121-0.001905 0.001136-0.030617 0.018183 0.031692 0.004962-0.026412 0.061895 0.002205-0.055361-0.017507-0.086773-6.64e-4 -0.099639-0.02211 0.03349-0.047015-0.039593 0.029362-0.048665 0.001152 0.001651-0.034642-0.049986 0.028867-0.007916-0.05246-0.023424-0.018477-0.021942 0.02326 0.016496 0.018147-0.043719 0.043054-9.87e-4 -0.05213-0.040253 0.043219 0.012208-0.037611-0.017651 0.006102-0.018808 0.030353-0.029197-0.043058 0.02458-0.005772-0.00775-0.055923 0.050312 0.037119 0.001817-0.038107 0.036787 0.02953-0.011876-0.042232 0.029857 0.029201 0.021282-0.009402-0.016165-0.025076 0.030682 0.011879 0.026063 0.035964 0.008084-0.02392 0.029528 0.03613 0.016995-0.065162 0.044705 0.009075-0.024418 0.075225 0.027549 0.004785-0.019629-0.025241 0.032994-0.036621 0.059551 0.061865 0.018312-0.01996-0.073738-0.055597 9.91e-4 -0.020787 0.014518-0.013195 0.063344 0.055101 0.00924-0.04817 0.037612 0.012209 0.020288 0.0843-0.002141-0.1008 0.042064 0.064505 0.015839-0.040911 0.04388 0.026396-0.035472 0.088586 0.083476-0.075881-0.19581-0.11697-0.025399-0.12274 0.16712-0.082311 0.002807-0.058893-0.10443 0.00544-0.071266 0.038269-0.050313-0.03712-8.2e-4 -0.12851 0.040912 0.015838 0.050481-0.03926-0.063344-0.055102 0.041572 0.001981 0.039919 0.036626 0.072094-0.05559 0.008909-0.041242 0.05609-0.011215 0.025072 0.05675 0.034808-0.001813 0.040089-0.039756 0.057241 0.03745 0.056744 0.12076 0.015505 0.038933-0.073246 0.006925 0.03134 0.070937 0.054439 0.023428 0.045359 0.14105 0.11696 0.095851 0.12256 0.1239 0.069613 0.069289 0.1295 0.051311 0.045366-0.004782z" fill="#b9b9b9"/>
   <path d="m22.93 36.144-0.073106-0.002858-0.061791-0.060825-0.069669-0.002394-0.081835 0.009963-0.024793 0.028154 0.040974 0.033521 0.032518 0.018383 0.072759 0.083302-0.021009-0.051827-0.041168-0.058046 0.034371 0.004635 0.029544 0.014483 5.4e-4 -0.055921 0.016645 0.058238 0.031398 7.33e-4 0.036418 0.01541-0.016066 0.015332-0.02294 0.014405-0.006681 0.023596 0.013015 0.033251 0.030471 0.007608 0.011045-0.030007 0.021743 0.02043 0.011508-0.033445 0.012088 0.040126 0.026107 0.014019-0.003708 0.027496 0.030935 0.004171 0.009113 0.036225 0.033522-0.040975-0.031513-0.077741-0.037345-0.008534-0.004094-0.02155 0.034178-0.019889-0.033174-0.039469z" fill="#b9b9b9"/>
   <path d="m22.508 35.543 0.044144 0.206-0.083382-0.078477 0.019619 0.068667 0.058858 0.044144-0.12262-0.029429v-0.11281l0.049048-0.004905-0.004905-0.029429 0.039238-0.063762z" fill="#b9b9b9"/>
   <path d="m22.415 35.747-5.95e-4 0.061136-0.024524 0.034333-0.044143-0.063762-0.014715 0.029429-0.029429-0.024524-0.039238-0.01962-0.004905-0.029428-0.022072 0.002452 0.022072 0.066215 0.029429 0.019619-0.058858 0.014715-0.044143-0.044144 0.019619-0.034333-0.034334-0.01962-0.019619 0.053953 0.049048 0.044144-0.039238 0.034333-0.039239-0.009809v-0.053953l-0.049048-0.039239 0.00981-0.034333h-0.034334l0.00981-0.049049-0.034334 0.004905-0.024524-0.029429-0.014714 0.044144 0.019619 0.039238 0.024524 0.039239-0.053953-0.01962-0.044143-0.004904 0.053953-0.004905 0.004904-0.024524-0.029429-0.014715-0.019619-0.039238-0.009809-0.044143-0.068668 0.004904-0.009809-0.039238 0.044143 0.019619 0.014714-0.024524 0.034334 0.024524-0.019619-0.039238h-0.053953l-0.053953 0.009809v-0.039238l0.049048 0.009809-0.024524-0.039238-0.039239 0.004905v-0.039239l0.088287 0.049048 0.058858 0.004905 0.029429 0.024524-0.024524-0.034334-0.053953-0.014714-0.01962-0.034334-0.038074-0.035067 0.006936 0.045086-0.03815-0.045086-0.013874 0.024277-0.031214-0.034682-0.027745 0.003468-0.010405 0.034682-0.010404-0.048555-0.083238-0.086705 0.069364 0.048554 0.076301 0.006937 0.038151 0.017341 0.10405 0.05896 0.07977 0.062428 0.016917 0.057695 0.02178-0.022031 0.035719 0.046954 0.031072-0.017614 0.008479 0.03786 0.036292 0.009926-7e-5 0.037568 0.037351 0.023626 0.036786-0.036786 0.039238 0.049048 0.01962-0.017167 0.053952 0.026976v-0.031881l0.024525 0.024524 0.002452 0.034334 0.049643-0.007183z" fill="#b9b9b9"/>
   <path transform="matrix(.078477 0 0 .078477 .0094588 .011732)" d="m255.97 1.75-4.25 0.90625 0.71875 1.0312-1.9375-0.15625-1.4062 2.125-3.375 0.53125 1.4062-1.9688-2.4688-0.6875-1.75 1.2188-1.4375-1.75-4.5938 0.6875 0.875 0.90625-4.4062 0.6875-0.53125 1.0625-1.9375-0.15625 1.5938-1.5938c-33.344 2.9645-71.999 18.338-95.281 33.594l1.4062 0.34375-2.4688 1.0625-0.375 1.0625-1.2188 0.53125 1.9375-0.1875-1.75 0.53125 1.0312-0.1875 0.1875 0.71875-0.875 0.1875 0.6875 0.53125 1.5938-0.71875-0.6875 2.3125 2.2812-0.90625-3.7188 7.0938 0.375-1.9688-2.3125 0.90625 2.6562-1.7812-3.3438-0.1875-2.6562 4.0625 1.4062-0.875-12.375 12.375-1.5938 3.1875-3.1875 3.7188-1.75 4.0625 0.15625 2.6562 2.125-0.53125-1.2188 2.125v-1.5938l-1.4375 2.6562 0.90625 5.6562-0.90625 1.9375 4.875 1.5312 1.8125 2.0312 0.09375 11.125 3.4688 4-1.7188 2.2188 1.25 1-3.3438 0.21875 2.9062 2.6875 1.8125-1.2188 2.4375 3.3125-1.2812 4.2188 5.0938 4.0312 0.34375 2.5312 2.7188-1.4688-0.40625-2.8438-2.9375-0.96875-0.15625-7.0938-2.9062-4.3438-0.03125-2.5938-3.5625-4.4688 1.1875-6.625 5.4688 2.1562-0.1875 7.5312 2.4688 3.25 1.9688-0.0625-0.78125 1.8125 4.2812 3.4062-1.75 1.75 3.5312 2.25 0.75 1.7812 5.4062 5.5 1.875 5.375-1.5938 2.2188 1.25 0.6875-2.2188 0.84375 0.875 1.5625 6.25 5.8125 6.5312 0.84375 2.875 2.5625 18.219 5.1875 9.8438-2.375 12.844 7.75 12.625 2.5625-1.2812-0.59375 5.9062-0.59375 0.4375 1.9688-1.7188 0.125 9.125 6.8438-1.2188 0.71875 1.2188 0.5 0.0625 3.3125 2.5312 1.4062 1.0625-1.1562-1.8125-1.875 2.5312 1.3438 5.3125 3.3438-0.03125 2.4688 1.4688-0.03125-0.125-0.875 2.125 2.2812 0.6875-1.0312 4.5938 0.375 1.0625 2.0938 2.1875-1.1562 0.6875 2.6562h2.3438l1.8125-1.2188-2.5312-2.8438 4.75-1.5 2 2.3125 1.3125 2.375 2.1875 1.0938 0.3125 1.7812 1.4062 1.375 1.4688 1.5625 1.0625 0.875 0.09375 1.5-0.78125-0.25 0.625 2.25-1 0.625 0.5625 1.0938-0.4375 2.0312 0.65625 1.125-0.90625 2.25 1 1.5-1.3438 1.3125-1.0312 1.8125-0.90625 2.0625-1.5938-0.1875-1.4688 0.59375-0.90625 1.0312 0.375 1.75-1.3125-0.0625-0.6875 0.9375 0.9375 0.71875-0.9375 1.4062-1.875 0.375-3 0.875-0.25 3.75-1.625 1.25-0.75 2.5-1.5 0.75 0.875 1.25-0.8125 1.0938 0.65625 1.8125-1.3438 0.96875 3.2188 2.3438 1.2812-1.9688-0.4375 1.5312 1.2812-1.4062 0.1875 1.6562-1.1562 2.2188-3 2-3.875 4.125 1.75 7-1.75 1.5 5.5 2.75 3.25 3.5 4.75 11.75 2.75 5.5 6 9.5-1.5 1.75 7 8.75 3.75 1.5 8.3125 3.9062 5.3125 3.875 2.9062 2.2188 1.0625 0.15625 0.28125 1.9688 3.9688 3.1562-0.4375 1.6875 0.4375 2.375 0.25 1.7812-0.25 3-0.1875 1.1562 0.4375 2.3125-0.78125 1.75-0.4375 4.875-0.71875 0.53125-0.34375-0.625-0.4375 2.2812 0.78125-0.25 0.1875 0.53125-0.90625 3c2e-5 -1e-5 0.00536 1.4902 0.09375 1.8438 0.08838 0.35356 0.4375 1.7812 0.4375 1.7812l-0.6875 0.78125-0.71875 1.1562 0.1875 1.3438v2.0312l-0.09375 1.5-0.625 0.96875-0.4375-0.34375 0.34375 2.2812-0.875 0.1875-0.34375 2.125-0.53125 1.6562-0.875 1.1562v1.25l0.6875 0.53125-0.09375 2.5625-0.4375 1.1562-0.78125-0.09375-0.375 1.2188 0.71875 5.3125-0.09375 4.6875-0.78125 0.71875v1.2188l0.4375 0.53125-0.625 0.96875-0.96875 1.1562-0.1875 1.3125v1.6875l-0.875 1.9375-1.1562 1.3438v0.875l-0.96875 1.5-0.15625 2.4688-0.71875 0.1875v1.4062l-0.4375 0.90625-1.5938-0.625-0.09375 1.4062 0.71875 2.4688-0.28125 1.1562 0.4375 2.0312 0.8125 2.5625-0.96875 1.9375-1.9062 0.875-0.625-0.3125 0.4375 1.1875-0.5 0.625-1-0.5-0.375 0.75 0.375 0.75-0.3125 0.65625 0.4375 0.71875 0.1875 0.75-0.21875 0.75 0.125 0.90625 0.59375 1.3438 0.15625 1.5312-0.625 0.8125 0.15625 0.78125-0.3125-0.21875-0.5 0.59375 0.125 0.4375-0.25 0.65625 0.09375 0.75-0.375 0.65625-0.0625 0.71875-0.3125 0.3125 0.3125 1.0625v0.75l0.375 0.21875-0.125 0.625 0.8125 0.03125 1 0.09375-0.03125-1.0312 0.53125-0.125 0.53125 0.4375-0.0625 0.625-0.40625 0.53125 0.8125 0.40625 0.40625-0.28125-0.0625 1.7812-0.53125-0.90625-0.6875 0.25 1.125 1.0312-0.96875-0.25-0.34375 0.9375 0.71875 0.5625-0.59375 0.84375-0.5625 0.875 0.4375 0.84375 0.25 0.96875-0.6875-0.34375-0.3125 0.75 0.1875 0.84375 0.96875 0.4375 0.53125-0.3125-0.3125 1.0625-0.90625 1.1875-0.875 0.21875-0.4375 0.8125 1.6875 0.5625-0.1875 0.5-0.125 0.21875-0.34375 0.09375 0.03125 0.46875 0.5-0.40625 0.6875 0.6875 0.40625-0.28125 0.03125 0.4375-0.53125 0.0625-0.65625-0.53125-0.5625 0.4375-0.28125 1.2812 0.8125-0.75 0.25 0.4375-0.5625 0.125-0.3125 0.3125-0.34375 0.625-0.0625 0.96875 0.65625-0.75-0.53125 1-0.375 0.59375-0.65625 1.2188-0.28125-0.15625 0.125-0.40625 0.65625-1.4062-0.03125-0.375 0.3125-0.28125-0.09375-0.9375-0.3125-0.125-0.15625 0.375-0.15625 0.8125-0.125 0.46875-0.34375-0.125 0.3125-0.875 0.15625-0.8125-0.53125 0.0625-0.34375-0.09375-0.4375 0.4375-0.625-0.21875-0.96875 0.34375-0.09375 0.75 0.34375 0.0625 0.6875-0.5-0.21875 0.71875-1.4688 0.96875-0.75 0.5-0.125 0.375v0.6875l0.375 0.46875 0.75-0.25-0.375-0.53125 0.03125-0.3125 0.8125-0.375 0.15625 0.625 0.8125 0.28125 0.625-0.0625-0.1875-0.34375 0.53125 0.03125 0.4375 0.84375-0.34375 0.3125 0.21875 0.53125h-0.5l-0.46875 0.9375h0.78125l-0.09375 0.40625 0.9375-0.28125-0.40625 0.21875-0.21875 0.3125 0.34375-0.03125-0.28125 0.21875-0.3125 0.03125-0.40625-0.53125-0.4375-0.125-0.21875 0.3125 0.25 0.625 0.5 0.0625 0.65625-0.03125 0.21875 0.3125-0.875-0.0625-0.40625 0.1875 0.4375 0.28125 0.96875 0.03125 0.375-0.09375v-0.46875l0.34375-1.0312-0.125 0.875 0.46875 0.09375-0.09375 0.375 0.71875 0.34375h-0.5625l-0.28125 0.1875 0.625 0.375 0.25-0.25-0.25 0.4375-0.34375 0.1875-0.3125-0.0625-0.40625-0.5625-0.4375-0.09375-0.40625-0.1875-0.25 0.28125 0.3125 0.5625-0.375 0.0625 0.125 0.25 0.71875 0.09375-0.71875 0.125 0.84375 0.125-0.34375 0.15625 0.03125 0.53125-0.5625-0.3125-0.4375 0.15625 0.125 0.40625-0.09375 0.65625 0.1875 0.28125-0.3125 0.15625 0.21875 0.3125v1.875l0.4375-0.1875 0.15625-0.71875 0.28125-0.6875-0.125 0.4375 0.0625 0.78125h0.4375l0.25 0.53125-0.03125 0.3125-0.53125-0.53125-0.34375 0.5-0.40625 0.40625 0.5625 0.34375 0.40625-0.40625-0.1875 0.75-0.65625-0.3125-0.03125 0.21875 0.96875 0.9375-0.96875-0.25-0.40625-0.625-0.4375 0.4375 0.09375 0.71875 0.65625-0.25 0.15625 0.6875 0.15625-0.3125 0.46875-0.09375-0.21875 0.3125 0.21875 0.21875-0.65625-0.09375 0.21875 0.59375 0.0625 0.5 0.6875-0.46875 0.0625-0.5625 0.53125-0.6875-0.3125 0.84375 0.5625 0.375-0.34375-0.1875-0.3125 0.34375-0.1875 0.4375v0.3125l-0.40625-0.21875-0.375-0.03125-0.0625 0.3125 0.1875 0.15625-0.3125 0.1875 0.125 0.65625 0.375-0.46875 0.25-0.09375-0.21875 0.6875 0.5625-0.3125 0.09375-0.34375 0.1875 0.125-0.125 0.59375 0.3125 0.84375-0.53125-0.625-0.21875 0.25 0.65625 0.75 0.34375 0.09375-0.1875 0.125 0.15625 0.6875-0.46875-0.5 0.1875 0.625 0.65625 0.53125 0.375-0.3125 0.375-0.21875-0.15625-0.53125-0.4375-0.65625 0.59375 0.375 0.40625 0.46875 0.5-0.40625-0.3125-0.09375-0.65625-0.46875-0.09375 0.0625-0.15625-0.21875-0.375-0.21875 0.34375-0.25 0.875 0.5625 0.53125 0.8125 0.09375 0.375-0.4375 0.09375v0.40625l0.34375 0.65625-0.3125 0.40625 0.15625 0.25 0.09375 0.4375 0.46875-0.125h1.25l0.3125 0.5-0.5 0.09375-0.53125-0.15625-0.5 0.1875-0.25 0.4375-0.3125-0.1875-0.4375 0.25-0.34375-0.0625 0.4375-0.40625-0.09375-0.25-0.40625 0.09375v-0.3125l0.65625-0.21875-0.28125-0.21875-0.375 0.03125 0.375-0.21875 0.34375-0.4375-0.1875-0.65625-0.34375 0.03125-0.09375 0.75-0.21875-0.40625-0.21875 0.15625-0.09375-0.5-0.4375 0.5625-0.28125-0.34375-0.34375 0.1875-0.03125 0.4375 0.15625 0.3125-0.0625 0.34375-0.28125 0.1875-0.09375 0.53125 0.59375-0.09375 0.25-0.40625 0.125 0.40625-0.03125 0.21875-0.5-0.03125-0.03125 0.25-0.40625 0.125 0.28125 0.3125 0.5625-0.125-0.09375 0.4375 0.5 0.21875 0.40625-0.46875 0.0625 0.375v0.3125l-0.6875-0.09375-0.0625 0.46875 1.4688 1h0.40625l-0.71875-0.75 0.3125 0.09375 0.09375-0.5v-0.34375l0.53125-0.03125-0.75-0.40625 0.6875-0.1875 0.375 0.53125 1.7188-1.2188 0.46875 0.34375-0.46875 0.75-0.875 0.40625-0.09375 1.0625-0.75 0.34375 0.53125-0.625v-0.6875l-0.3125-0.0625 0.03125 0.4375-0.34375 0.375-0.1875-0.84375-0.46875 0.65625 0.15625 0.4375 0.84375 0.625 1.3438 0.75 0.53125-0.21875 0.3125-0.625 0.28125-2.4375 0.5-0.75 1.5-0.78125 0.34375 0.125 0.46875-0.125 0.21875-0.65625 0.59375-0.25 0.46875 0.59375 0.8125-0.28125 1.1562 0.40625 0.34375-0.96875-0.59375-0.53125 0.875-0.1875-0.34375-0.96875-1.25 0.09375 1.3125-0.4375 0.46875-1.3438 0.6875-0.96875 1.3438-1.2188-1.9688-0.96875 1.0625-0.1875 0.46875-0.71875 0.875 1.4375h0.875l1.25-1.9688-0.1875-0.96875 1.5-2.2812 1.9375-0.71875 2.5625-2.125-0.0625-0.625-1.25-0.15625 1.5-0.375 0.09375-1.5-0.34375-1.2188-1.5938-0.375-2.4062-2.5625 0.09375-1.8438 1.6875-2.2812 0.78125-0.71875h0.96875l0.71875-0.71875 2.125 0.4375 0.625-0.53125-0.8125-0.6875 0.4375-0.96875 1.25 0.09375v-2.8438l0.71875-1.8438 3.3438-1.5-2.2812-0.8125v-0.625l1.6562-0.15625 0.28125 0.6875 0.78125 0.8125 1.1562-0.1875 0.53125-0.96875-0.53125-2.375-1.5938-0.09375-0.09375 0.53125 0.8125 0.34375-0.4375 0.625-1.25 0.15625 0.25-0.875-0.78125-0.34375-0.625-0.53125v-2.3125l-0.15625-1.8438 0.4375-0.78125 0.59375-0.53125 1.4375 0.6875 1.3125 0.875 1.1562 0.625 4.1562-0.4375 0.71875-1.4062-0.53125-1.3438 0.59375-0.59375 0.4375-1.25 0.8125 0.1875 0.25-1.5938-0.78125-1.3438 0.09375-1.5 1.0625 0.53125 0.6875 0.625 3.0312 0.53125h3.9688l3-0.34375 6.1875-1.6875 3.5312-4.9375 0.34375-3.0312-2.8125-1.9375 1.5938-2.2812-2.6562-2.8438-1.25-2.6562-0.6875-3 2.125-3.1875-1.25 3 0.53125 2.125 1.5938 2.125 3 1.9375 3.9062 1.4375h6.5312l3.1875-3.5312 4.4062-3.7188-0.71875-1.0625-1.4062 0.15625-1.5938 2.3125-0.15625-2.3125 3.6875-2.8125 0.1875 2.3125 1.25-1.0625 0.875-3.1875 5.8438-5.3125v-2.125l1.9375 2.3125-7.25 6.3438 1.0625 0.1875 1.5938-1.5938 1.9375-0.53125 0.1875-1.4062 2.6562-0.71875 0.34375-1.9375 1.5938-2.125 2.6562-3 5.125-2.8438 0.34375-2.2812 1.0625-1.7812 1.0625-2.4688-0.53125-1.75-0.875-2.3125 1.9375-1.9375 1.4062-1.25-2.125-0.875 2.6562 0.71875 1.4062-2.6562 2.8438-1.5938 2.2812-0.875 0.53125-1.25 0.71875 0.1875 1.25-0.53125 2.2812 0.6875h2.6562l3.7188-3.5312 3.875 1.7812 1.25-1.4375 0.53125 1.25 4.4062 1.0625 0.34375-2.125 4.625-1.4062 0.15625-2.3125-0.40625-4.6875 1-3 4.5-4 1.25-3.75 1.5-2.75-1.75-1.5 2.75-1 1.75 0.25 0.5-2.75-1-2.5 1.5-3.5 1.25-6.75-0.5-4.5 1-1.25-1-2.75 1.25-1 0.25 1.75 1.5 0.75 2-2.25 1.75-3 4-3.75 3-4.75 3.6562-5.5 1-3.5 1.5-1.625 1.375-2.625-1.9688-0.375 0.5625-2.4062 0.53125-5.5938-1.5-1.75-3.375-0.125-1.7188 0.59375-2.0312-1.8438-2.625-3.5-2.375-4.375-3.2188-2.7188-3.5312-1.4062-6-0.375-2.125-1.625-1.375-0.625-4.25 0.03125-1.2188 2.7812-1.7812 0.3125-0.03125-1.4062-0.59375-1.7188 2.5-3.375 2-1.75-2.75-3.75-1 3.25-2.25-4-1.75-1-2.5 0.5-2.25-3.25-0.5 2.75-2.25-3.25-3 2.75 1.25 2.5-2.25 0.25-1.75-0.75-2.5 3 0.25-2-3.5-0.25 2.25-1.75 2.75 1 1.5-1.25 2.25-4-7.75-2.5-2 2.75-1.5-1.25-1.25 2.25-2.5-2.75 3-2.75 4.5-3 0.5-3.25-3.25-1.5-3-10.5-1.75-0.75-1.75-2.25-3-1-2.5-1.25-3.25-2-2-0.25h-11.25l-1.875 0.15625-0.375-2.4062h-2.625l-1.5-2h-1.875l-0.5-3.25-1.5-1.75-2.125-2.375-2.25-0.75-3.1562-0.8125-1.3125-1.7188-0.6875-2.3438-0.625-1.5312-1.625-0.25-1.375-0.96875-0.4375 0.90625-1.5938-1.6875-0.53125 1.1875-1.8438-1.6875 3.4062-0.125-3.5-1.6562-4.6875 1.2812-2.5625 1.2188-5.1562-1.625-2.9375-1.4062-6.1562-0.75-2.9375 0.4375-1.875-0.78125-1.4375-1.6875-2.3125-1.8438-2.9062-0.375-1.2188-1.25-0.03125-0.84375-0.6875-0.90625-1.0625 0.375-0.34375 0.9375 0.25 0.53125v0.46875l1.6562 0.09375 0.375 0.6875-1 0.09375-1.125-0.28125-0.78125 0.71875-1.0312 0.28125-0.75-0.125-2.0312 0.96875-1.3125-0.03125 0.34375 0.375-0.71875 0.375 0.03125 0.8125c0.19657 0.36491 0.07369 0.78763 0.21875 1.2188 0.18814 0.55915 0.65202 1.1517 0.96875 1.625l0.5625 0.40625-0.03125 0.75-0.03125 1.5625-0.6875 0.3125-0.4375 0.65625-1.0625 0.21875-0.84375-0.25-0.4375-0.625 0.5625-0.5-1.0625-0.84375 0.09375-0.4375-0.65625-0.65625 0.40625-0.84375 1.0938-1.0312 0.03125-0.5 0.96875-0.46875v-0.9375l-0.46875-1.3438 0.46875-0.21875-0.6875-0.59375-0.5-0.625 0.5625-1 3.7188-1.75-0.5-1.3438-1.5312-0.75-2 1.375-0.65625-0.3125-0.65625 1.25-2.6875 0.875-2 1.5938-3.9062-0.53125-1.4688 2.8125-1.0312-0.34375 1.3125-0.875-2.125-0.59375-2 1.375-1.1562 0.8125c-0.07504 0.56038-0.95621 1.5425-1.0312 1.875l0.78125-0.34375-1 2 0.65625 0.625-0.6875 0.84375-1-0.34375-1.3438 0.84375-0.5 1.375-1.6875 0.75-1.0938 0.40625 0.71875 2.8438-0.96875 0.3125 0.3125-0.96875-2.4688-0.78125-2.0938-2.3438-3.2812-2.4062-5.875 0.71875-4.0625 2.25-2.375-0.9375 0.46875 0.96875-1.9688 0.03125-7.9062-8.9688 3.1562-11.875-1.2812-3.7812-7.2188-2.25-13.688 1.5312-3.4688-0.90625 3.0625-4.1562 0.71875-5.1875-1.1562-0.03125 1.5-1.8438 0.71875 2.4062 2.25-5.2188-1.4062-0.28125 4.375-6.25-5.625-0.78125-9.4688 2.3125-2.3125 6.7188-3.6562 3.1562-3.4688-0.65625-9.0312 3-3.0312-2.4062-3.0938 0.0625-6.2812-12 1.6562-11.75 1.3438-0.4375-0.03125 0.9375 1.9688-2.6875-0.125-4.5625-1.7812 0.03125 1.7188-0.5625 1-2.8125 3.4688-1.0625-0.40625-1.375 2.0938 0.5 3.8125-1.7812 1.1562-1.7812 1.4375-0.5625-0.90625 1.7812 3.5312-1.5938v-1.25l0.71875 1.4375 5.8438 0.15625 1.2188-1.5938 3.9062 3 1.5938-1.2188 1.5 0.71875-0.09375-1.5312 1.5 0.53125 1.25 1.5938 1.75-1.125-2.6562-1 1.9688-1.3125-2.5-0.25 0.71875-0.90625 6.2812-0.25 0.96875-1.5 0.34375 1.125-0.6875 0.46875 3.7812-1.3438-0.34375 0.96875 2.75-0.34375 3.3438 0.25 0.625 1.9688 4.9375-1.6875 2.4062 0.875 3.7812 3.1875-1.0625 3.375 2.0312-0.1875-1.2188 1.4062 1.2188 2.3125 1.5-0.375 0.90625 3.4688 3.0938 1.5 0.09375 1.2188 1.75-0.09375 0.09375 0.625 2.6562-6.2812-6.2812-14.75 3.9688-3.5312 7.4375-4.7812 9.625-4.1562-2.125-0.25 1.4375-0.8125-1.875-0.78125 3.375 0.53125 1.75-1.25-0.78125-0.875-0.625 0.78125-0.09375-0.78125-2.4688 0.1875 1.75-0.96875 1.5938 0.59375-0.96875-2.625-3.1875-0.625 1.5312-0.09375-1.1562-0.71875 1.1562 0.53125 1.0312-1.1562h-0.6875l0.6875-0.96875-0.59375-0.25 1.3125-0.96875 1.3438 0.96875-1.0625 2.6562 3.0938-3.7188-1.1562-2.6562 0.53125-0.53125 1.5938 1.25 2.6562-2.4062-1.25-2.0312 2.75-1.8438 7.25-0.71875 0.25-1.1562 1.0625 1 4.3438-0.8125-0.53125-1.1562-0.8125 0.90625-2.8125-1.6875 2.2812-3.625 1.4062-0.09375v-0.96875l1.875 0.4375 0.96875-2.0312 0.1875 1.1562 1.75-0.96875 0.8125 0.6875 3.5312-1.5-0.96875-0.78125 2.375 0.25 6.2812-2.125-1.4062 1.25 5.0312 0.09375-1.9375 1.0625-1.875-0.96875-4.4062 2.125 0.34375 1.75 2.375 0.875 3.0938-2.7188 2.4062 0.15625-0.1875-0.78125 8.4062-1.4062-1.3438-0.625 4.1562-0.875-1.6562-1.1562-1.25 1.4062-1.25-0.1875 1.9688-1.3125-0.96875-1.5938-2.5625 2.3125 1.0312 0.875-0.4375 0.34375-1.4062-0.96875-4.25 0.96875-5.0312-1.8438-0.78125-1.875h-2.2188l1.3125-1.5625-2.375 0.5-0.71875-0.875-2.9062-0.15625 4.9375-0.1875 2.4062-0.96875-1.4062-1.6875-4.7812-0.09375-5.4062 1.4062 2.8438-3.4375 20.594-0.53125 1.9375-2.2188h0.125l5-0.4375 2.5-1.5625-1.9375-0.75 1.4375-0.125-2.375-0.1875 1.8125-0.125-1.375-0.3125 0.4375-1.125-2.375-0.9375-2.125 0.5625 0.125-1-3.3125-0.4375-3.875 1.25 3.25-1.375-2.625 0.3125 4.9375-1.0625-2.25-0.4375 0.375-0.3125-2.5 0.3125-0.6875-0.8125-0.625 0.4375 0.1875-0.5-1.25 0.8125 0.6875-0.6875h-1.375l0.125-0.3125-1.6875 0.375-0.0625-1.375-0.4375 0.5625-0.375-0.625-3.125-0.375 0.875-0.4375-2.3125-0.5 1.25-0.125-1.8125-0.3125 1.6875 0.0625 0.1875-0.6875-3.3125-0.8125 1.375-0.1875-2-0.5625 0.1875-0.5-1.1875 0.3125-0.3125-0.25 0.8125-0.5-1.125 0.25-0.4375-0.375 0.625-0.375-0.6875-0.5-1.375-0.0625 0.6875-0.1875-1.875-0.625-1.75-1.5625-1.0625-0.1875-1.0625 1.5938 1.5938 0.34375-1.75 0.375 1.5938 0.53125-1.9688 0.15625 0.53125 1.4375-1.5625-1.25-2.3125 1.5938-1.25-1.9375-1.4062 1.5938 0.1875-1.5938-4.0625 0.34375 1.4062-0.53125-0.875-1.4062-3.1875-0.53125 3.1875-0.1875-0.1875-1.5938-1.0625 0.90625-3.7188-0.90625 0.375-1.0625-1.9688 0.90625-3.6875-1.9688-1.25 1.25-6.9062-1.0625-1.75 0.875 1.2188 0.71875-2.2812 1.5938 2.4688-0.1875 1.0625 1.5938-4.0625 2.125 4.0625 1.4062 1.4062 3-3.1875 1.9688-6 1.5938 1.9375 1.0312 1.5938 3.9062-1.9375 0.71875 0.34375 2.0938-1.2188-1.5625-1.25 1.2188-2.8125 0.1875 0.34375-1.0625-5.125-2.6562 1.0625-4.7812-7.0625 0.1875-13.094-3.9062-5.3125 0.90625 1.5938-1.0625-1.0625-2.3125-1.4062-0.15625-1.0625 1.4062-0.53125-1.0625 2.3125-3 4.9375-2.3125 0.1875-0.875 4.4062-0.1875-1.25-0.875h1.7812l1.9375-0.1875-1.75-1.0625-0.90625 0.375-3-0.375 0.875-1.2188 5.3125 1.5938 2.125-1.25h3l2.6562-1.4062-5.3125-0.71875 1.9688-0.6875 3.5312 1.2188 3.7188-1.4062-1.0625-0.71875 4.5938 0.53125-1.0625-1.2188 1.75 0.34375 1.4375 0.71875 3.5312-1.5938-1.5938-0.71875 1.9375-0.53125-1.4062-0.1875 1.4062-0.6875-2.6562 0.15625 0.53125-1.4062z" fill="#b9b9b9"/>
   <path transform="matrix(.078477 0 0 .078477 .0094588 .011732)" d="m256.24 207.97 3.2704 2.3865 1.7678 0.17678 1.6794 1.9445 2.0329 0.61872 1.8562-0.08839 0.7071-0.79549 5.3033 2.0329-1.5026 0.7071 1.6794 1.6794 0.35355 2.2981-1.4142-0.44194-0.08839 1.149-1.8562 4.5962-4.0659 3.2704-5.7452 1.591-2.4749 3.5355-0.70711 3.8007-1.6794 2.1213-2.0329-0.79549-0.70711-2.1213-1.3258-0.26517-1.6794 0.53033-0.61872-2.2097 2.5633-3.182-1.5026-2.9168 0.79549-0.35356 1.149-2.2981-0.17677-1.7457-1.2374 1.3921 0.37565-1.4805-1.2374 1.9666-3.2483-2.3423 1.3479-0.99437-0.64081-1.812 0.79549-1.0607-0.90598-1.2595 1.5689-0.7734 0.7071-2.4528 1.6352-1.2595 0.26516-3.8007 2.9831-0.86179 2.0108-0.48613z" fill="#346733"/>
   <path transform="matrix(.078477 0 0 .078477 .0094588 .011732)" d="m279.22 450.11-0.83969-0.7955-1.812-1.0165 0.53033 1.1932 1.1048 0.26516 0.39775 1.0165 0.92808 0.53033 0.17678-0.35356-0.48614-0.83968z" fill="#b9b9b9"/>
   <path transform="matrix(.078477 0 0 .078477 .0094588 .011732)" d="m278.78 448.6 0.39775-0.7071-0.7513-0.39775 0.30935-1.5026-0.35355-0.44194v0.35355l-1.8562-1.5026 0.7071 0.92807 1.0165 0.88389-0.7513-0.13258-0.53033-0.26517-0.66291-1.4142-0.70711-0.17678 0.48613 0.61872-0.17677 0.44194-0.22097-0.53033-0.22097 0.44194 0.66291 1.1932 0.7513 1.1932-0.48614-1.6794 0.30936-0.13258 0.57453 0.61872 0.57452 0.48613-0.61872 0.17678 0.39775 0.39775h0.48614l-0.0442 0.39774-0.92807-0.30936 0.44194 0.66292 0.7071-0.0442 0.48614 0.44194z" fill="#b9b9b9"/>
   <path transform="matrix(.078477 0 0 .078477 .0094588 .011732)" d="m275.06 444.45 0.39775-0.13258 0.08838-0.70711 0.22098 0.44194 0.88388-0.53033 0.13258-0.44194-0.39775-0.17677 0.22097-0.26517 0.30936 0.13258-0.04419-0.30936-0.04419-0.79549-0.30936-0.39775v0.53033l-0.44195-0.35355 0.22098-0.39775h-0.83969l0.08838 0.70711 0.39775 0.08838-0.35355 0.39775-0.08839 0.48614 0.35355-0.08839-0.04419 0.44194h-0.35355l-0.39775 0.26517 0.26516 0.39775-0.39774 0.39774 0.13258 0.30936z" fill="#b9b9b9"/>
   <path transform="matrix(.078477 0 0 .078477 .0094588 .011732)" d="m277.63 439.5-0.44194-0.44194-0.13258-0.57452v-0.7513l-0.0442-0.70711 0.30936-1.0165-0.61872-0.26516 0.22097-1.1049-0.53033-0.61871-0.39774-0.92808v-0.88389l-0.17678-0.92807-0.53033-0.83969-1.149 0.26516 0.48614 0.48614 0.44194-0.39775 0.26516 0.26517-0.57452 0.44194-0.17678 0.26516 0.48614-0.04419-0.17678 0.57452-0.44194-0.30936-0.26516-0.22097-0.13259 0.44194-0.39775-0.30935-0.08838 0.48613 0.30936 0.26517-0.13259 0.53033 0.35356 0.26516 0.44194-0.48613 0.04419 0.7071 0.22097 0.26517v0.30936l-0.53033 0.04419v-0.48613l-0.35355-0.13259-0.30936-0.04419-0.13258 0.79549 0.57452 0.17678-0.30936 0.39775 0.70711-0.35356 0.7513-0.26516 0.26517-0.53033-0.26517-0.57452 0.53033 0.30935 0.30936 0.70711 0.22097 0.44194-0.66291 0.13259 0.04419-0.53033-0.53033 0.30935v0.48614l-0.7071-0.26516-0.39775 0.39774 0.13258 0.61872 0.53033-0.44194 0.44194 0.04419 0.44194-0.22097 0.44195 0.7513-0.48614 0.26517-0.30936-0.30936-0.57452-0.04419-0.39775 0.39774 0.35355 0.48614 0.39775-0.30936 0.17678-0.39775 0.30936 0.70711 0.22097 0.26516-0.53033 0.17678h-0.57453l-0.35355-0.30936 0.08839 0.53033 0.48613 0.0442-0.13258 0.30936-0.53033-0.08839 0.08839 0.35355-0.08839 0.22097 0.66291 0.13258 0.7513 0.0442-0.04419-0.44194 0.04419-0.48614 0.13259-0.39775 0.17677 0.97227-0.22097 0.44195 0.48614 0.39774 0.53033-0.08838-0.0442-0.70711 0.13259 1.2816 0.88388 0.04419z" fill="#b9b9b9"/>
   <path transform="matrix(.078477 0 0 .078477 .0094588 .011732)" d="m276.13 439.59-0.48614 0.92808-0.79549 1.149-0.53033-0.26517 0.13258-0.39774h0.44194l-0.22097-0.57453h0.53033l-0.22097-0.22097 0.17678-0.35355-0.7513 0.35355 0.13258-0.70711 0.57452 0.26517 0.08839-0.39775-0.57452-0.66291 0.39774 0.13258 0.66292 0.44194 0.30936 0.0442 0.13258 0.26516z" fill="#b9b9b9"/>
   <path transform="matrix(.078477 0 0 .078477 .0094588 .011732)" d="m278 424.02 0.6875-0.5-0.375-0.6875 0.5625-1.3125-0.125-1.125 0.125-0.875 0.25-1.1875 0.3125-1.0625-1.6875-1.375v0.625l0.9375 0.375 0.125 0.6875-0.75-0.375-0.5625 0.125h-0.6875l0.75 0.5625 0.625-0.25 0.25 0.4375-0.375 0.625-0.875-0.375-0.5625 0.375 0.75 0.4375 0.75-0.125 0.375 0.625-0.6875 0.375 0.125-0.75-0.6875 0.1875-0.8125 0.1875 0.875 0.5625 0.1875-0.375 0.375 0.5 0.4375 0.0625-0.8125 0.5-0.5-0.375 0.375 0.5625h0.6875l0.125 0.4375-0.75-0.0625 0.375 0.5 0.4375 0.125-0.5625 0.375h-0.25l-0.4375-0.5 0.3125-0.1875-0.5625-0.1875-0.375 0.625 0.5 0.3125-0.75 0.6875 0.6875 0.3125 0.5625-0.5 0.5-0.125-0.5625 0.875 0.6875 0.25z" fill="#b9b9b9"/>
   <path transform="matrix(.078477 0 0 .078477 .0094588 .011732)" d="m277.25 414.02 0.625 0.75 0.8125-0.0625 0.75-0.8125-0.0625-1.3125 0.5625 0.1875-1.0625-1.0625 0.625-0.875h0.6875l-0.4375-1.125-1-0.3125-0.5 0.125-0.25 1.0625-0.0625 0.8125 0.125 0.6875-0.25 1.25-0.5625 0.6875z" fill="#b9b9b9"/>
   <path transform="matrix(.078477 0 0 .078477 .0094588 .011732)" d="m297.16 302.1 2.2981-0.35356-0.35355-1.9445 1.4142-0.53033 1.591 2.4749 0.35356 4.4194 2.1213 1.4142-0.70711 2.4749-0.88388 2.1213 1.4142 1.591 2.2981 7.2478h1.9445l1.2374 1.591-1.4142 3.5355-4.4194 1.7678-0.35356 1.591 0.53033 1.4142-1.0607 4.4194 1.4142 2.6516-1.9612 1.2178-1.75 3.375-2.25 1.125 0.5 2.5-1.5 1.875 0.875 3-0.75 1.5 0.625 2.125-1.75 1.5-1.125 2.5v3.625l1.125 5.25 0.75 0.375-0.25 3.75-1.25 0.75-1.375 3.75 0.25 2.5-2.5 2.375-1 4.625 0.875 4.25-0.375 0.875-1.75 0.875-0.875 4.625-1.375 2.75 0.625 5.375-1.125 0.25-0.25 3.125 1.125 1.5-0.125 5 1.75 0.625-0.5 1.375-2.625-0.625 0.125 1 1.5 0.5 0.75 1.375-1.5 1.125-0.125 2.125-0.5 2.875-0.5 2.375-1.75 1.375-0.125 1.75 0.125 1.875-1.125 2.25-1.625 0.875-0.75 3.25 0.25 3.25 1.625-0.5 0.625 1.375-0.25 2.25 1.125 2.375 4.75 0.5 4.25 1.75-1.125 1.375-0.25 9.5" fill="none" stroke="#fff" stroke-linejoin="round" stroke-width=".5"/>
   <path d="m28.15 29.368-0.1407-0.27676-0.13734-0.083381-0.044143-0.16186-0.24524-0.23053-0.28938-0.22072-0.098096 0.103-0.024524-0.13734-0.22562-0.24034h-0.068667l-0.098096 0.15205-0.073573 0.25996-0.073572 0.14714 0.058858 0.073572-0.28448 0.35315 0.019619 0.206" fill="none" stroke="#fff" stroke-linejoin="round" stroke-width=".039238"/>
   <path transform="matrix(.078477 0 0 .078477 .0094588 .011732)" d="m342.35 358.25 1.0178-2 5.1339-3.2929 14.75-5-0.25-6.25-2.5-0.5-1.25 4.25-5 1.75-9-2.75 3.25-6.75-4.3059-1.3315-3.6941-4.6685-7-2.25-3.25-4.25-1.5-4.25-4-1-1.75 2.25-3.25-3.25-1.75 0.25-2.25-0.75-2.5 0.75-3.75 3" fill="none" stroke="#fff" stroke-linejoin="round" stroke-width=".5"/>
   <path d="m28.355 26.701 0.013873-0.20809 0.12486-0.48555-0.20809-0.027746-0.19422 0.027746-0.069364-0.56879-0.18035-0.097109-0.083238 0.083237-0.38844-0.097111 0.003366-0.58324 0.11098-0.13873-0.069365-0.24971 0.083238-0.055492-0.12486-0.12486 0.20809-0.18035 0.069365-0.24971-0.041619-0.23584-0.22197-0.11098-0.027746-0.18035 0.041618-0.1526-0.55492-0.030126-0.11673-0.32384 0.10286-0.18708-0.069365-0.40231-0.33295-0.055491-0.31908-0.19422-0.32146-0.28657-0.40429-0.005746-0.38705-0.42292v-0.41619l0.041619-0.20809-0.52775 0.025367-0.2525 0.28419-0.43203 0.085617-0.20809 0.069364-0.49942-0.069364-0.041619-0.52717-0.33295 0.19422-0.24971-0.069365-0.055492-0.18035h-0.19422l0.083237-0.18035-0.49565-0.52816 0.23682-0.43105 0.19422-0.027746-0.027746-0.18035 0.1526-0.42292 0.4578-0.13873 0.28558-0.15597" fill="none" stroke="#fff" stroke-linejoin="round" stroke-width=".039238"/>
   <path d="m27.427 24.424-0.18638-0.14714-0.206 0.019618-0.088287-0.12752-0.68667 0.019619-0.23543 0.16676 0.019619 0.206-0.078477 0.24524-0.15695 0.42182" fill="none" stroke="#fff" stroke-linejoin="round" stroke-width=".039238"/>
   <path transform="matrix(.078477 0 0 .078477 .0094588 .011732)" d="m298.88 266.95 4 8.625-1.5 4.75 0.5 2.625-1.625 2.375 0.125 4.25 2 1.875-0.125 1.625-2.5 3-0.5 3.75" fill="none" stroke="#fff" stroke-linejoin="round" stroke-width=".5"/>
   <path transform="matrix(.078477 0 0 .078477 .0094588 .011732)" d="m309.36 209.58 1.0858 1.4357 9.3196 1.3195 5.8107-3.9874 3.25-3.5-2.75-0.25 0.5-3.25-2.25-4 5.5 1.75 2.5 1-0.25-2 6.5-1.25 6.1516-2.8232 1.75 3 1 2.25-1.75 5.5 2 5 3.5 1.5 6.5-3.25 5.25 1.25-0.5-3 7.2552-0.48744 1.7522 3.4445 5.947-0.45741 2.283-5.2623 5.9749-3.8536" fill="none" stroke="#fff" stroke-linejoin="round" stroke-width=".5"/>
   <path d="m27.045 13.959-0.11772 0.14714-0.13734 0.049048-0.039239 0.078477 0.039239 0.12752h0.068667l0.01962 0.11772-0.28448 0.058858 0.039239 0.206-0.064604 0.10216 0.19192 0.2065c0.12466 0.03307 0.28097 0.029216 0.30123 0.18408" fill="none" stroke="#fff" stroke-linejoin="round" stroke-width=".039238"/>
   <path transform="matrix(.078477 0 0 .078477 .0094588 .011732)" d="m357.5 190.2-1 2.75 0.625 0.75-0.375 0.625-2.75 0.375 0.125 1.625-0.75 2.125 2.125 3.5 0.875-0.125 0.375 2 1.375 4.125" fill="none" stroke="#fff" stroke-linejoin="round" stroke-width=".5"/>
   <path d="m29.032 16.203 0.068668-0.17657-0.029429-0.098096 0.078477-0.10791-0.078477-0.13733-0.088287-0.35315 0.12752-0.16676 0.00981-0.12752" fill="none" stroke="#fff" stroke-linejoin="round" stroke-width=".039238"/>
   <path d="m21.437 16.841-0.14327 0.046415 0.15061 0.12573 0.01968 0.18766-0.11551-0.045317-0.00511 0.097963-0.15606 0.35531-0.29738 0.23988-0.45641 0.12962-0.18084 0.26561-0.064822 0.30113-0.13706 0.17949-0.1449-0.04685-0.069172-0.18042-0.087656-0.014395-0.14899 0.03152-0.040294-0.16909 0.19825-0.24471-0.13242-0.24786" fill="none" stroke="#fff" stroke-linejoin="round" stroke-width=".039238"/>
   <path d="m15.549 17.129 0.10277 0.12757v0.060244l0.035436 0.031893-0.049612 0.070874-0.088593 0.003544-0.060244-0.053156 0.10631-0.046069-0.046068-0.099224-0.017719 0.053157-0.060244-0.046069 0.063788-0.010631-0.060243-0.056699 0.074418-0.035438z" fill="#b9b9b9"/>
   <path d="m15.658 17.191 0.057632 0.070162 0.012529-0.050116-0.070161-0.020046z" fill="#b9b9b9"/>
   <path d="m15.721 17.311 0.037587-0.040093 0.065151 0.047611-0.037587 0.042598-0.065151-0.050116z" fill="#b9b9b9"/>
   <path d="m15.941 17.384 0.04761-0.060139 0.025058 0.017541-0.072668 0.042598z" fill="#b9b9b9"/>
   <path d="m15.716 17.048 0.020047 0.037587 0.027564-0.01754-0.047611-0.020047z" fill="#b9b9b9"/>
   <path d="m15.781 17.462-0.045103 0.007519 0.010023 0.035081 0.03508-0.0426z" fill="#b9b9b9"/>
   <path d="m43.012 21.548c0.058838-7.3821-4.0106-14.606-10.354-18.371-6.3971-3.9517-14.881-4.1293-21.441-0.45678-6.5378 3.5134-10.966 10.656-11.125 18.088-0.37923 7.8312 4.0186 15.648 10.879 19.42 6.5106 3.7802 15.028 3.7047 21.472-0.19087 6.474-3.7254 10.624-11.017 10.569-18.49z" fill="none" stroke="#aaa" stroke-miterlimit="10" stroke-width=".11928"/>
   <path transform="matrix(.078477 0 0 .078477 .0094588 .011732)" d="m310.6 136.28h5.1265l1.4142-2.1213-7.6014 0.35355 1.0607 1.7678z" fill="#b9b9b9"/>
   <path transform="matrix(.078477 0 0 .078477 .0094588 .011732)" d="m304.94 133.63-0.88388 1.7678-9.7227-1.0607-3.0052 3.0052-3.182-2.1213-7.955 1.0607-2.6517-1.4142 1.0607-1.2374 7.7782 0.35355-1.9445-1.591 0.7071-1.591-3.182-0.53033 2.8284-1.591 12.374 1.0607 1.591 1.4142 2.1213-0.17677-1.7678 1.0607 5.8336 1.591z" fill="#b9b9b9"/>
   <path transform="matrix(.078477 0 0 .078477 .0094588 .011732)" d="m266.76 134.69 2.4749 2.2981-6.364 0.53033-3.0052-2.2981 6.8943-0.53033z" fill="#b9b9b9"/>
   <path transform="matrix(.078477 0 0 .078477 .0094588 .011732)" d="m280.54 125.15 2.4749 0.17677 0.53033-1.2374-3.0052 1.0607z" fill="#b9b9b9"/>
   <path transform="matrix(.078477 0 0 .078477 .0094588 .011732)" d="m278.42 127.98-3.3588 1.4142-12.728 0.53033 3.0052-1.7678-0.53033-1.591-4.0659-0.17678-3.182-3.182-13.258-1.4142-1.0607-1.0607 1.591-0.35355-0.53033-0.70711h-3.3588l-5.6568 3.3588-3.5355-0.17678 1.7678-0.53033 1.4142-2.4749 12.198-2.1213 5.8336 0.7071 12.551 5.6569 6.364 0.7071-0.35355 1.7678 6.8943 1.4142z" fill="#b9b9b9"/>
   <path transform="matrix(.078477 0 0 .078477 .0094588 .011732)" d="m239 122.5-0.17678 2.1213 2.4749-0.53033-0.88388-1.4142-1.4142-0.17677z" fill="#b9b9b9"/>
   <path transform="matrix(.078477 0 0 .078477 .0094588 .011732)" d="m298.4 103.4 1.2374 1.4142 0.35355-2.2981-1.591 0.88388z" fill="#b9b9b9"/>
   <path transform="matrix(.078477 0 0 .078477 .0094588 .011732)" d="m259.75 110.08-0.5 2.5 1.75 1 1.25-1.5-2.5-2z" fill="#b9b9b9"/>
   <path transform="matrix(.078477 0 0 .078477 .0094588 .011732)" d="m263.5 107.58 1.125 0.25 0.625-2.5-2.375-1 1.5 1.25-0.875 2z" fill="#b9b9b9"/>
   <path transform="matrix(.078477 0 0 .078477 .0094588 .011732)" d="m266.75 109.08 2.5 1.25v0.75l-2.5-2z" fill="#b9b9b9"/>
   <path transform="matrix(.078477 0 0 .078477 .0094588 .011732)" d="m302.82 36.14 8.3969 1.8562 0.17678-0.61872-3.6239-0.88388-4.9498-0.35355z" fill="#b9b9b9"/>
   <path transform="matrix(.078477 0 0 .078477 .0094588 .011732)" d="m306.44 42.857-0.7071 0.88388 5.2149 2.0329 2.5633-1.5026-6.1872 0.17678-0.88389-1.591z" fill="#b9b9b9"/>
   <path transform="matrix(.078477 0 0 .078477 .0094588 .011732)" d="m275.68 60.358 6.0988-1.3258-1.6794 1.0607-4.4194 0.26516z" fill="#b9b9b9"/>
   <path transform="matrix(.078477 0 0 .078477 .0094588 .011732)" d="m244.12 10.766 2.9375-0.1875 0.6875 0.75 4.9375-1.8125 0.875 0.75 3.4375 0.3125 1.4375-0.6875-1.5-0.4375-2 0.3125 0.5625-1-4.9375-0.9375-0.75 0.5625-0.9375-0.875-2.375 2.4375-2.375 0.8125z" fill="#b9b9b9"/>
   <path transform="matrix(.078477 0 0 .078477 .0094588 .011732)" d="m249.62 12.079 0.625 0.6875 4.25-1.3125-2.4375 0.1875-2.4375 0.4375z" fill="#b9b9b9"/>
   <path transform="matrix(.078477 0 0 .078477 .0094588 .011732)" d="m258.25 12.829 1.1875-0.75 0.4375 0.625-1.625 0.125z" fill="#b9b9b9"/>
   <path transform="matrix(.078477 0 0 .078477 .0094588 .011732)" d="m257 23.516 1.75-1.25 0.1875 1.25h-1.9375z" fill="#b9b9b9"/>
   <path transform="matrix(.078477 0 0 .078477 .0094588 .011732)" d="m262.06 10.454 1.1875 0.6875 0.5625-0.8125-1.75 0.125z" fill="#b9b9b9"/>
   <path transform="matrix(.078477 0 0 .078477 .0094588 .011732)" d="m266.06 3.6414-0.375 1.4375 2.75-0.125 0.375-0.9375-2.75-0.375z" fill="#b9b9b9"/>
   <path transform="matrix(.078477 0 0 .078477 .0094588 .011732)" d="m292.37 13.266 0.375-0.625-1.4375 0.0625 1.0625 0.5625z" fill="#b9b9b9"/>
   <path transform="matrix(.078477 0 0 .078477 .0094588 .011732)" d="m322.81 34.204 3.375-2.25 1.375 0.5625-1.75 0.1875 1.5 0.625-1.375 3.375 1.25-1.25 0.1875 0.1875 1.9375 0.3125-1.1875 1.125 2.8125-0.25v1.25l2.125-1.25 0.4375 0.875 2.5625-0.125-0.75 2.0625 3.1875-0.25-2.375 0.875 1.25 0.0625-0.5625 0.5625 1.625 0.875 1.0625-1.5-0.375 1.5 1.0625-0.8125 0.9375 0.9375-0.25 2.0625h-1.5625l-0.375-1.375-1.375 0.875 0.125-1.5-1.5-0.9375-1.9375 2.0625h-2.625l3.125-1.5-4 0.3125 0.125-1.25-2.6875 1.125-4.625-0.8125-2.5 0.5-1-0.625 2.9375-1.375h-3.125l1.8125-1.5625 2.125 0.4375-1.625-1.1875 1.4375-0.125-0.8125-2.8125z" fill="#b9b9b9"/>
   <path transform="matrix(.078477 0 0 .078477 .0094588 .011732)" d="m250.25 29.829 3-0.625 0.875 1.375-3.875-0.75z" fill="#b9b9b9"/>
   <path transform="matrix(.078477 0 0 .078477 .0094588 .011732)" d="m272.32 7.4136-4.2426 0.53033-3.2704-0.53033-1.8562 1.5026 7.4246 0.17678v-0.7955l1.9445 0.88388 0.70711-0.7955 1.3258 1.5026 3.2704-0.088388-1.8562 0.35355 1.3258 0.61872 12.463 1.2374-7.1595-2.4749 2.6516 0.70711-0.7071-0.7955 7.1594 1.7678-1.5026-1.9445 1.8562 1.0607-0.88389-1.4142h-2.4749l1.3258-0.35355-1.5026-0.44194-1.2374 0.44194-1.0607-0.97227v0.53033l-1.591-1.3258-1.7678 0.44194-0.61872-1.0607 2.3865 0.26517-1.5026-0.88388 1.591 0.088388 1.7678 0.70711 1.2374-0.35355-0.53033 0.7955 2.4749-0.70711-1.5026 0.70711 4.331 1.0607-0.61872-1.2374 1.4142 0.53033-0.53033-1.149 1.3258 0.44194-1.0607-0.61872 1.7678 0.088388-1.0607-0.35355 0.97227-0.088388-1.3258-0.35355-0.88388 0.61872-0.44194-0.53033-1.6794 0.26517 0.79549-0.7955-0.79549 0.44194-1.591-0.088388 1.2374-0.35355-1.7678-0.53033-0.97227 0.17678-0.26517 0.17678-1.149-0.53033-0.08839 0.53033-0.35355-0.7955-0.35355 0.61872v-0.7955l-0.70711 0.53033-1.149-0.61872-3.9775-0.17678 2.5633-0.26516-1.0607-0.61872h-2.3865l4.2426-0.61872-4.1542-0.35355-14.407-0.26516 1.149 1.2374 0.70711-0.26516 0.08838 0.17678 1.591 0.088388 1.0607 0.35355-1.591 0.53033 1.7678-0.17678 2.1213 0.53033 0.88389-0.44194 2.6516 1.7678-3.8891 1.591 1.9445 0.88388z" fill="#b9b9b9"/>
   <path transform="matrix(.078477 0 0 .078477 .0094588 .011732)" d="m269.67 4.0549 2.2981 0.35355-0.53033-0.44194-1.7678 0.088388z" fill="#b9b9b9"/>
   <path transform="matrix(.078477 0 0 .078477 .0094588 .011732)" d="m333.36 7.8114 3.4471 1.37-1.9445 0.13258 2.0329 0.088388 1.1932 0.66291-1.8562-0.30936 1.5026 0.53033-0.97227 0.044194 0.83969 0.26516-1.5468-0.044194 1.8562 0.44194-1.149-0.13258 0.92807 0.30936-2.2097 0.13258 2.5633 0.66291-1.5026-0.17678 2.5191 0.70711-0.97227 0.57452h1.5026l-1.1932 0.35355 1.4584 0.17678-1.0165-0.044195 1.5468 0.48614-1.2374 0.53033 1.8562 0.44194-2.6075-0.088388 1.0607 0.17678 1.37 0.48614-1.5468-0.39775-0.57452 0.7955-0.66291-1.0165-0.57453 0.66291-0.04419-0.92808-0.66291 0.48614-0.83969-0.66291-0.83969 0.26516 0.22097-0.48614-1.2816 0.17678 1.0165-0.48614-4.0217 0.30936-1.4142-0.7513-2.74-0.22097 1.37-0.30936-0.92808 0.044195-1.149-0.26517-0.08839-0.48614h-1.37l0.17677-0.22097-2.3865-0.48614-0.17678-0.7955-0.39775 0.22097-0.39774-0.44194-1.9887-0.17678 1.2816-0.044194-1.9004-0.22097 1.0165-0.30936-2.0771 0.088388 0.7955-0.48614-1.9446-0.30936 2.0771-0.48614 1.1932 0.13258-3.7565-1.2816 1.1932 0.7955-1.4584 0.61872-1.0607-0.61872 1.0607-0.48614-1.5026 0.30936-0.57453-0.88388 2.0329-0.26516-1.2374-0.22097-1.591 0.66291-1.9887-0.44194 2.0329-0.66291-2.8726 0.088388 4.1101-0.83969-1.7236-0.26516-2.3423 0.7955-0.97227-0.26516h1.3258l-1.5468-0.26517 1.6794-0.22097-3.1378-0.44194 3.3146 0.088388-3.4913-0.39775 4.2868-0.22097-2.8284-0.088388 0.57452-0.17678-2.2981 0.39775-0.13259-0.61872 1.591-0.044194-1.0607-0.48614 6.143 0.57452 9.325 1.4142 8.6621 1.591 1.6352 0.88388z" fill="#b9b9b9"/>
   <path transform="matrix(.078477 0 0 .078477 .0094588 .011732)" d="m135.43 49.133c29.834-10.222 60.969-12.35 90.138-10.607l1.9329-0.072458 4.75-1.25 5.25 1 5.5 2 7 4v3.75l-4.5 4.25 12-0.25 5-4.75 6.5 0.5 4.75-4.25 14.25-0.5 4-4.25 5.25 0.5 1 3 2.5 1.25" fill="none" stroke="#fff" stroke-linejoin="round" stroke-width=".5"/>
   <path d="m9.3566 7.1034 0.67328 0.14159 0.75264 0.34371 0.64422-0.10729 0.079942-0.16808 0.52338 0.084046 0.2634 0.26955 0.14929 0.3939 0.30644-0.080964 0.16262-0.19746 0.26784 0.072428 0.25656 0.48614 0.14451 0.43285 0.40176 0.10864" fill="none" stroke="#fff" stroke-linejoin="round" stroke-width=".039238"/>
   <path transform="matrix(.078477 0 0 .078477 .0094588 .011732)" d="m196.25 154.45 3.125-7.25h5.75l-1-2.625-2.75-2.625h2.5l0.5-3 8.75 0.125" fill="none" stroke="#fff" stroke-linejoin="round" stroke-width=".5"/>
   <path transform="matrix(.078477 0 0 .078477 .0094588 .011732)" d="m213 145.83 0.5-9.375h2.5" fill="none" stroke="#fff" stroke-linejoin="round" stroke-width=".5"/>
   <path d="m16.98 11.485-0.39125 0.21639-0.040371 0.29371-0.412 0.27467" fill="none" stroke="#fff" stroke-linejoin="round" stroke-width=".039238"/>
   <path transform="matrix(.078477 0 0 .078477 .0094588 .011732)" d="m215.12 157.08-2.25-3-2.5-0.875" fill="none" stroke="#fff" stroke-linejoin="round" stroke-width=".5"/>
   <path transform="matrix(.078477 0 0 .078477 .0094588 .011732)" d="m236.17 162.95-5.7396 1.7286-5.038-0.29109" fill="none" stroke="#fff" stroke-linejoin="round" stroke-width=".5"/>
   <path transform="matrix(.078477 0 0 .078477 .0094588 .011732)" d="m236.89 174.85 1.6449-3.3148 4.0282-1.7458" fill="none" stroke="#fff" stroke-linejoin="round" stroke-width=".5"/>
   <path transform="matrix(.078477 0 0 .078477 .0094588 .011732)" d="m216.62 157.58 2.875-0.25 2.25-4.625 4.875 0.5 2.625-4 1.75 1.75 1.625-1.75h5.375" fill="none" stroke="#fff" stroke-linejoin="round" stroke-width=".5"/>
   <path transform="matrix(.078477 0 0 .078477 .0094588 .011732)" d="m419.67 42.857-1.4142 0.26516 3.8007 2.9168 0.61872 1.149 1.0607-0.26516 2.8284 2.4749-0.88389-1.0607 4.2426 3.2704h1.2374l2.5633 2.2097 0.26517-0.26516 1.2374 1.2374 1.2374-0.44194-15.026-10.695 1.9445 1.9445-1.591-0.088388-2.1213-2.6517z" fill="#b9b9b9"/>
   <path transform="matrix(.078477 0 0 .078477 .0094588 .011732)" d="m426.56 49.663 0.79549 1.149 0.35355-0.70711 2.2097 1.9445 1.0607 1.4142 5.5685 4.2426-0.88389 0.97227-0.7071-0.61872-0.35356 0.53033-0.17677-0.7955-1.0607-0.17678-0.08839-0.53033-0.7955-0.44194 0.53033-0.7955-1.0607 0.17678-0.79549-1.5026-2.0329-0.97227-0.70711-0.7955-1.7678-0.88388 1.7678 0.088389-1.5026-0.88388-0.35355-1.4142z" fill="#b9b9b9"/>
   <path d="m36.447 6.219-0.40231-0.12486-0.090174-0.09711-0.013873 0.14567 0.20116 0.1526 0.437 0.5896 0.13179 0.28439 0.041619-0.041619 0.076301 0.15954 0.027745-0.013873 0.20116 0.3607 0.18035-0.020809 0.3607 0.33989-0.020809-0.14567 0.18728 0.055492-0.090174-0.15954 0.055492-0.048555-0.59654-0.90868-0.32056-0.30877-0.41372-0.37399-0.15279-0.049728 0.20036 0.20532z" fill="#b9b9b9"/>
   <path transform="matrix(.078477 0 0 .078477 .0094588 .011732)" d="m460.12 80.079 2.125 0.75 2.25 0.5 1.375 2.25 3.75 4.125 1.6875 1.9688 0.1875 1.2188 1.6875 0.84375-0.3125 1.3438 1.625 4.625" fill="none" stroke="#fff" stroke-linejoin="round" stroke-width=".5"/>
   <path d="m39.171 9.2591-0.46257-0.52688-0.12178-0.019619-0.098096-0.14714-0.098096 0.058858-0.11772-0.15695-0.068667 0.029429 0.25505 0.39238-0.058858 0.34334 0.35315 0.61801 0.068667 0.27467-0.039238 0.24524-0.16676 0.058858 0.11772 0.35315-0.058858 0.098096 0.14714 0.43162-0.088286 0.206 0.11772 0.79458 0.28448 0.36296-0.029429 0.16676 0.26486 0.5101 0.078477 0.57877-0.10791 0.31391 0.24524 0.27467 0.039239 0.11772 0.14714-0.00981-0.078477 0.078477-0.11772-0.078477 0.049049 0.27467 0.068667 0.01962-0.068667 0.058857 0.11772 0.01962 0.00981 0.078477 0.068667 0.019619 0.049048 0.078477 0.098096-0.049048-0.078477 0.068667 0.068668 0.068668-0.058858 0.058857 0.068667 0.12752 0.068668-0.049048-0.00981 0.078477 0.078477-0.019619 0.019619 0.11772 0.029429 0.13733 0.15695 0.14714-0.009809 0.13733 0.078477 0.01962 0.039238 0.21581 0.078477 0.058857-0.098096 0.049048 0.14714 0.14714 0.029429 0.15695 0.21581 0.206 0.38258 0.65724 0.206 0.42181 0.33353 0.078477 0.24524 0.12752 0.25505 0.19619 0.24524-0.33353 0.17657-0.058858-0.029429 0.058858 0.11772 0.11772-0.1652-1.0679-0.28546-1.1597-0.49048-1.5404-0.8802-2.1071-0.96581-1.7668-0.76816-1.219z" fill="#b9b9b9"/>
   <path d="m38.091 9.389v0.16647l0.069365-0.055492-0.069365-0.11098z" fill="#b9b9b9"/>
   <path d="m38.16 9.5693 0.013873 0.18035 0.083237-0.027746-0.09711-0.1526z" fill="#b9b9b9"/>
   <path d="m38.007 9.6664 0.069364 0.055492-0.069364 0.041619v-0.09711z" fill="#b9b9b9"/>
   <path d="m37.869 9.5554-0.027746 0.1526-0.055492-0.083237 0.083238-0.069364z" fill="#b9b9b9"/>
   <path d="m37.882 13.135 0.09711 0.083237-0.083237 0.027746-0.013873-0.11098z" fill="#b9b9b9"/>
   <path d="m39.228 9.3316-0.10117 0.33254 0.11772 0.21581 0.029429 0.12752-0.14714-0.029429-0.029429 0.12752 0.15695 0.18638v0.13734l0.3041 0.51991-0.42181-0.12752 0.43162 0.84363-0.14714 0.029429 0.039239 0.16676 0.206 0.51991-0.86702-0.032795" fill="none" stroke="#fff" stroke-linejoin="round" stroke-width=".039238"/>
   <path d="m38.666 10.223 0.6082 0.206 0.84363 1.0202-0.17657-0.029429 0.22562 0.47086 0.6082 1.2654 0.54934 1.4322 0.029429 0.206-0.412-0.068668-0.019619 0.078477-0.098096-0.078477-0.039239 0.00981-0.019619 0.11772-0.11772-0.23543-0.00981 0.15695 0.039239 0.11772-0.078478 0.078477-0.59543-0.46442-0.27467-0.29429h-0.098097l-0.029429 0.049048h-0.21581" fill="none" stroke="#fff" stroke-linejoin="round" stroke-width=".039238"/>
   <path d="m40.117 11.462 0.62515 0.54864" fill="none" stroke="#fff" stroke-linejoin="round" stroke-width=".039238"/>
   <path d="m40.598 14.961 0.14714 0.4022 0.206 0.51991-0.17657 0.00981-0.14714-0.098097-0.34334-0.019619-0.16676 0.13734" fill="none" stroke="#fff" stroke-linejoin="round" stroke-width=".039238"/>
   <path d="m40.618 15.795-0.00981 0.206 0.019619 0.17657-0.11772 0.049048-0.088287 0.16676" fill="none" stroke="#fff" stroke-linejoin="round" stroke-width=".039238"/>
   <path d="m39.96 15.56 0.15695 0.00981 0.039238-0.10791 0.078477-0.029429 0.088287 0.098096 0.15695 0.039239 0.00981-0.11772-0.10791-0.009809-0.078477-0.088287h-0.14714l-0.068667 0.078477-0.14714-0.029429" fill="none" stroke="#fff" stroke-linejoin="round" stroke-width=".039238"/>
   <path d="m40.892 15.883 0.078477 0.15695 0.21581 0.029429 0.088287-0.12752 0.29429 0.8142 0.17657-0.078477 0.019619-0.32372-0.029429-0.21581 0.039239-0.16676-0.098097-0.23543 0.098097-0.206-0.00981-0.3041 0.24089-0.28756" fill="none" stroke="#fff" stroke-linejoin="round" stroke-width=".039238"/>
   <path d="m40.853 17.169 0.13734-0.25505 0.13733-0.00981 0.16676 0.31391 0.019619 0.31391 0.15695 0.039239 0.088287 0.35315 0.10791-0.019619 0.029429-0.23543-0.058858-0.19619 0.078477-0.029429-0.088287-0.27467-0.058858-0.45124" fill="none" stroke="#fff" stroke-linejoin="round" stroke-width=".039238"/>
   <path d="m41.285 18.13 0.049048-0.58858" fill="none" stroke="#fff" stroke-linejoin="round" stroke-width=".039238"/>
   <path d="m41.657 17.885 0.058858 0.14714 0.009809 0.3041 0.098097 0.16676 0.049048 0.16676v0.21581" fill="none" stroke="#fff" stroke-linejoin="round" stroke-width=".039238"/>
   <path d="m41.775 16.639 0.11772 0.29429 0.16676 0.12752-0.078477-0.43162v-0.10791l0.44997-0.027746" fill="none" stroke="#fff" stroke-linejoin="round" stroke-width=".039238"/>
   <path d="m42.06 17.041 0.098096 0.31391 0.039238 0.34334-0.049048 0.39238 0.078477 0.26486 0.058858 0.36296" fill="none" stroke="#fff" stroke-linejoin="round" stroke-width=".039238"/>
   <path transform="matrix(.078477 0 0 .078477 .0094588 .011732)" d="m134 79.704 2-2.25 0.75 2-2.75 0.25z" fill="#fff"/>
   <path transform="matrix(.078477 0 0 .078477 .0094588 .011732)" d="m145 75.454 2-2.25 3-0.75-5 3z" fill="#fff"/>
   <path transform="matrix(.078477 0 0 .078477 .0094588 .011732)" d="m149 64.204z" fill="#fff"/>
   <path transform="matrix(.078477 0 0 .078477 .0094588 .011732)" d="m150.75 60.954-2 4.25-0.5-1.5 2.5-2.75z" fill="#fff"/>
   <path transform="matrix(.078477 0 0 .078477 .0094588 .011732)" d="m174 44.954 0.4375-1.8125 4.3125 0.5625 0.25-2.25-0.85539 1.7286-4.1446-0.47855v2.25z" fill="#fff"/>
   <path transform="matrix(.078477 0 0 .078477 .0094588 .011732)" d="m139 103.2z" fill="#fff"/>
   <path transform="matrix(.078477 0 0 .078477 .0094588 .011732)" d="m137.36 103.76 0.88388-1.0607h-1.7678l0.88388 1.0607z" fill="#fff"/>
   <path transform="matrix(.078477 0 0 .078477 .0094588 .011732)" d="m151.5 133.1 2.2981 0.35355 0.70711-1.9445 0.53033 2.6516-3.5355-1.0607z" fill="#fff"/>
   <path transform="matrix(.078477 0 0 .078477 .0094588 .011732)" d="m194.28 143.71 0.35356 2.4749 1.4142-0.35355-1.7678-2.1213z" fill="#fff"/>
   <path transform="matrix(.078477 0 0 .078477 .0094588 .011732)" d="m187.56 80.422 1.9445-1.4142-0.53033 2.1213-1.4142-0.70711z" fill="#fff"/>
   <path transform="matrix(.078477 0 0 .078477 .0094588 .011732)" d="m297.5 286.7v3.25l3.25 3 2.75 0.25 0.75-1.75-6.75-4.75z" fill="#fff"/>
   <path transform="matrix(.078477 0 0 .078477 .0094588 .011732)" d="m309 302.2 1.5-1.25-0.25 4.25-1.25-3z" fill="#fff"/>
   <path transform="matrix(.078477 0 0 .078477 .0094588 .011732)" d="m322.75 359.2 4.25 0.25-2.5 1.75-1.75-2z" fill="#fff"/>
   <path transform="matrix(.078477 0 0 .078477 .0094588 .011732)" d="m346.25 371.2 3.25-0.75 2-2-1.25 3.5-4-0.75z" fill="#fff"/>
   <path transform="matrix(.078477 0 0 .078477 .0094588 .011732)" d="m228.84 164.57-1.7678-2.6516-3.7123-2.9168-1.6794 0.53033 2.74 2.1213 0.97227 2.6516" fill="#fff"/>
   <path transform="matrix(.078477 0 0 .078477 .0094588 .011732)" d="m384 329.45h2.25l-1.25 1.75-1-1.75z" fill="#fff"/>
   <path transform="matrix(.078477 0 0 .078477 .0094588 .011732)" d="m402 312.95 2.5-2.75-1.5-2.75-1.25 1.5 1.5 1.25-1.25 2.75z" fill="#fff"/>
   <path transform="matrix(.078477 0 0 .078477 .0094588 .011732)" d="m396.25 322.2 2.5 1v-1.25l1.75-1.25-0.5-1.5-3 0.25 1.75 1.25-2.5 1.5z" fill="#fff"/>
   <path transform="matrix(.078477 0 0 .078477 .0094588 .011732)" d="m249.75 98.454 0.75 2.75-2.5-0.5 1.75-2.25z" fill="#fff"/>
   <path transform="matrix(.078477 0 0 .078477 .0094588 .011732)" d="m244.75 75.954 0.5 2.25 2-1-2.5-1.25z" fill="#fff"/>
   <path transform="matrix(.078477 0 0 .078477 .0094588 .011732)" d="m187.38 40.824 3.6284 1.2785 1.5499 1.8303-1.8392 2.6498 0.08211 0.99632 0.89461-1.0695 1.1106 3.0141 0.50889 0.12684-1.3695-3.723 1.0999-1.6605-1.4231-2.382 1.4142-0.88388-1.9446 0.53033-3.7123-0.70711z" fill="#fff"/>
   <path transform="matrix(.078477 0 0 .078477 .0094588 .011732)" d="m180.14 36.759 4.5962-1.0607-0.53033-1.591-4.0659 2.6517z" fill="#fff"/>
   <path transform="matrix(.078477 0 0 .078477 .0094588 .011732)" d="m202.59 28.98 2.4749 5.1265v-4.0659l1.9446-1.9445 3.8891 4.773 1.591-0.88388 0.17678-6.1872-10.076 3.182z" fill="#fff"/>
   <path transform="matrix(.078477 0 0 .078477 .0094588 .011732)" d="m213.02 22.44 3.8891-2.8284-5.6568 2.1213 1.7678 0.70711z" fill="#fff"/>
   <path transform="matrix(.078477 0 0 .078477 .0094588 .011732)" d="m220.09 25.798 3.0052-1.7678 1.4142 0.70711-4.4194 1.0607z" fill="#fff"/>
   <path transform="matrix(.078477 0 0 .078477 .0094588 .011732)" d="m232.28 32.869-0.7071 4.2426-5.1265 1.591-2.6516-0.17678-3.7123 1.4142 6.1872 0.88388 1.7678-1.0607 3.182 0.53033 1.4142 1.2374 5.8336-0.53033-0.88389 1.591-4.773 1.2374-1.4142 2.4749 2.1213-0.17678-3.3588 3.3588 1.2374 2.8284 1.591 0.17678 2.6516-2.2981 0.70711-4.5962 4.4194-1.0607-0.53033-3.7123 0.53033-1.2374 2.4749 0.70711v2.1213l3.5355 1.4142 0.17678 2.6517-3.8891 0.88388 5.3033 0.70711 2.8284 0.17678 2.1213-3.182 5.3033-0.88388-2.2981-2.4749 3.3588-0.70711-4.2426-0.17678-4.0659 1.0607-6.7175-1.4142-1.4142-3.7123-3.8891-0.17678-4.4194-5.4801-2.6516 1.7678z" fill="#fff"/>
   <path transform="matrix(.078477 0 0 .078477 .0094588 .011732)" d="m391.91 225.91-8.3085 3.3588-0.70711 1.4142-5.4801-4.0659-5.3033 2.8284-3.7123-0.17677-2.2981 4.0659 1.2374-4.2426-3.7123-1.4142-4.4194 2.8284-0.70711-1.591-3.182 0.17678-5.6568 3.8891-5.1265-1.4142-6.1872 3.182-10.253 1.7678-2.6516-3.8891-5.8336-4.9497-8.8388 0.7071-4.773 3.5355-5.6568 0.88388-2.2981 2.1213-2.2981-2.2981h-3.3588l-3.3588-2.2981-5.1265 0.35355-1.2374 1.591 1.2374-2.6516 6.1872 0.17678 2.6516 2.8284 2.8284-0.17677 2.4749 1.9445 3.182-2.6516 4.2426-0.35355 3.5355-1.9446 3.3588-2.1213 8.1317-0.17677 4.5962 4.5962 2.8284 4.4194 5.3033-0.70711 7.2478-2.2981 1.4142-1.7678-0.70711-2.4749-3.7123-5.8336-8.4853-4.5962-6.8943-2.4749-6.1872 2.1213 4.5962-1.9446 3.182-0.88388 3.8891 2.2981 6.364 2.4749 6.5407 5.4801 4.773 5.1265 4.2426 1.9445 4.2426-3.182 3.0052-1.2374 2.8284 1.2374 3.7123-2.2981-0.35355-1.9446-2.8284-1.591 2.6516 0.17678 1.2374 3.0052 3.0052 1.591 4.0659 1.4142 7.0711-3.8891 3.8007 3.5355 3.9775-1.591 6.0104-1.9445z" fill="#fff"/>
   <path transform="matrix(.078477 0 0 .078477 .0094588 .011732)" d="m262.63 175.07 0.77129 3.1331-2.1498 2.583 1.4062 1.375 1.4688 1.5625 1.0625 0.875 0.09375 1.5-0.78125-0.25 0.625 2.25-1 0.625 0.5625 1.0938-0.4375 2.0312 0.65625 1.125-0.90625 2.25 1 1.5-1.3438 1.3125-1.0312 1.8125-0.90625 2.0625-1.5938-0.1875-1.4688 0.59375-0.90625 1.0312 0.375 1.75-1.3125-0.0625-0.6875 0.9375 0.9375 0.71875-0.875 1.2812 3.4062 2.4062 1.7812 0.1875 1.5938 1.9375 1.9375 0.53125h1.9375l0.53125-0.875 2.6562 1.0625 2.4688 0.875 3.375 1.5938 1.2188 2.125 2.125 0.875 0.875 2.3125h1.4375l0.875 2.625 3.8125 0.25 2.75-0.90625 2.3438 1.25 1.9375 0.25 2.0312 0.5625 0.96875 2.375-1.8438 5.375 1.5938-0.59375 2.0938 2.25 2.2812-14.469-0.6875-3.5312-1.9375-1.5938-0.1875-2.4688 2.4688-1.2188 1.7812 0.875-0.375-2.125h-3.3438l-0.1875-3h7.4688l-0.1875-0.90625 1.4062 1.0625 1.9688-2.2812 0.875 2.2812-0.15625 2.25 1.75-0.125-0.84375-5.0938-2.6562-3.6875 2.4688-3-1.4062-1.7812-1.0625-2.8125v-3.7188l1.9375-3.5312-6.875-0.1875-1.7812 0.875-3-3.3438-4.5938-0.71875-3.9062 0.53125-3.6562-4.5312 0.90625-3-1.9375-3.7188-2.375 0.125-2.125-0.375 2.125-2.25v-1.375l1.75-3.75 2.125-0.5 1.6562-1.0312-0.21875-0.28125 0.5625-1 3.7188-1.75-0.5-1.3438-1.5312-0.75-2 1.375-0.65625-0.3125-0.65625 1.25-2.6875 0.875-2 1.5938-3.9062-0.53125-1.4688 2.8125-1.0312-0.34375 1.3125-0.875-2.125-0.59375-2 1.375-1.1562 0.8125c-0.07504 0.56038-0.95621 1.5425-1.0312 1.875l0.78125-0.34375-1 2 0.65625 0.625-0.6875 0.84375-1-0.34375-1.3438 0.84375-0.5 1.375-1.6875 0.75-1.0938 0.40625 0.71875 2.8438-0.96875 0.3125 0.3125-0.96875-1.2313-0.60447-0.73392 0.82582z" fill="none" stroke="#fff" stroke-linejoin="round" stroke-width=".5"/>
   <path transform="matrix(.078477 0 0 .078477 .0094588 .011732)" d="m42.5 128.7c73.907-50.963 385.04-52.99 464 0" fill="none" stroke="#000" stroke-linejoin="round" stroke-opacity=".46667" stroke-width=".3"/>
   <path transform="matrix(.078477 0 0 .078477 .0094588 .011732)" d="m0.75 268.45c79.399-76.442 483.18-69.209 546.25 0.25" fill="none" stroke="#000" stroke-linejoin="round" stroke-opacity=".46667" stroke-width=".3"/>
   <path transform="matrix(.078477 0 0 .078477 .0094588 .011732)" d="m38.184 412.94c-20.416-78.005 492.33-73.122 472.35 0.70711" fill="none" stroke="#000" stroke-linejoin="round" stroke-opacity=".46667" stroke-width=".3"/>
   <path transform="matrix(.078477 0 0 .078477 .0094588 .011732)" d="m139.3 513.35c-30.141-51.697 300.04-53.569 268.7 0.70711" fill="none" stroke="#000" stroke-linejoin="round" stroke-opacity=".46667" stroke-width=".3"/>
   <path transform="matrix(.078477 0 0 .078477 .0094588 .011732)" d="m388.91 25.445c-76.721-13.447-153.44-16.651-230.16 0" fill="none" stroke="#000" stroke-linejoin="round" stroke-opacity=".46667" stroke-width=".3"/>
   <g transform="matrix(.025 0 0 -.025 -31.385 13.206)">
    <g transform="matrix(.99077 0 0 .99077 2.6595 2.6594)">
     <g clip-path="url(#f)">
      <text transform="matrix(1 0 0 -1 47.37 20.402)"><tspan x="0" y="0" fill="#ffffff" font-family="Liberation Serif" font-size="7.92px">2008 Jun 12 03:54:25</tspan></text>
     </g>
    </g>
    <g transform="matrix(.99077 0 0 .99077 2.6595 2.6594)">
     <g clip-path="url(#g)">
      <text transform="matrix(1 0 0 -1 134.16 20.88)"><tspan x="0" y="0" fill="#000000" font-family="Liberation Serif" font-size="6.96px">OMC - Martin Weinelt</tspan></text>
     </g>
    </g>
    <g transform="matrix(.99077 0 0 .99077 2.6595 2.6594)">
     <path d="m356.4 381.6v0.24-0.24z" fill="#137ac9"/>
    </g>
    <g transform="matrix(.99077 0 0 .99077 2.6595 2.6594)">
     <path d="m335.52 450.72h-0.24 0.24z" fill="#fcc407"/>
    </g>
    <g transform="matrix(.99077 0 0 .99077 2.6595 2.6594)">
     <path d="m258.48 406.32v0.24-0.24z" fill="#fcc407"/>
    </g>
    <g transform="matrix(.99077 0 0 .99077 2.6595 2.6594)">
     <path d="m254.64 375.84h0.24-0.24z" fill="#fcc407"/>
    </g>
    <g transform="matrix(.99077 0 0 .99077 2.6595 2.6594)">
     <path d="m244.08 288.72v0.24-0.24z" fill="#fcc407"/>
    </g>
    <g transform="matrix(.99077 0 0 .99077 2.6595 2.6594)">
     <path d="m496.56 274.8v0.24-0.24z" fill="#fcc407"/>
    </g>
    <g transform="matrix(.99077 0 0 .99077 2.6595 2.6594)">
     <path d="m500.64 252.24v-0.72 0.72z" fill="#fcc407"/>
    </g>
    <g transform="matrix(.99077 0 0 .99077 2.6595 2.6594)">
     <path d="m500.4 298.56v0.24-0.24z" fill="#fcc407"/>
    </g>
    <g transform="matrix(.99077 0 0 .99077 2.6595 2.6594)">
     <path d="m500.64 252.24v-0.72 0.72z" fill="#fcc407"/>
    </g>
    <g transform="matrix(.99077 0 0 .99077 2.6595 2.6594)">
     <path d="m77.039 334.56v0.24-0.24z" fill="#fcc407"/>
    </g>
    <g transform="matrix(.99077 0 0 .99077 2.6595 2.6594)">
     <path d="m75.599 250.32v-0.24 0.48-0.24z" fill="#fcc407"/>
    </g>
    <g transform="matrix(.99077 0 0 .99077 2.6595 2.6594)">
     <g clip-path="url(#h)">
      <text transform="matrix(1 0 0 -1 408.32 40.076)"><tspan x="0" y="0" fill="#000000" font-family="Liberation Serif" font-size="13.92px">km</tspan></text>
     </g>
    </g>
    <g transform="matrix(.52227 0 0 .52227 -504.92 94.501)">
     <g clip-path="url(#f)">
      <text transform="matrix(1 0 0 -1 47.37 20.402)"><tspan x="0" y="0" fill="#ffffff" font-family="Liberation Serif" font-size="7.92px">2008 Jun 12 04:45:24</tspan></text>
     </g>
    </g>
    <g transform="matrix(.52227 0 0 .52227 -504.92 94.501)">
     <g clip-path="url(#g)">
      <text transform="matrix(1 0 0 -1 134.16 20.88)"><tspan x="0" y="0" fill="#000000" font-family="Liberation Serif" font-size="6.96px">OMC - Martin Weinelt</tspan></text>
     </g>
    </g>
    <g transform="matrix(.52227 0 0 .52227 -504.92 94.501)">
     <path d="m335.76 419.04h-0.48 0.48z" fill="#dcdcdc"/>
    </g>
    <g transform="matrix(.52227 0 0 .52227 -504.92 94.501)">
     <path d="m356.4 435.84v0.24-0.24z" fill="#fff"/>
    </g>
    <g transform="matrix(.52227 0 0 .52227 -504.92 94.501)">
     <path d="m341.28 473.52h0.24-0.24z" fill="#dcdcdc"/>
    </g>
    <g transform="matrix(.52227 0 0 .52227 -504.92 94.501)">
     <path d="m335.52 485.52h-0.24 0.24z" fill="#dcdcdc"/>
    </g>
    <g transform="matrix(.52227 0 0 .52227 -504.92 94.501)">
     <path d="m254.64 434.4h0.24-0.24z" fill="#dcdcdc"/>
    </g>
    <g transform="matrix(.52227 0 0 .52227 -504.92 94.501)">
     <path d="m354.24 487.92h1.439-1.439z" fill="#dcdcdc"/>
    </g>
    <g transform="matrix(.52227 0 0 .52227 -504.92 94.501)">
     <path d="m296.64 503.76h-1.92 4.08-2.16z" fill="#dcdcdc"/>
    </g>
    <g transform="matrix(.52227 0 0 .52227 -504.92 94.501)">
     <path d="m295.68 502.32h2.4-2.4z" fill="#dcdcdc"/>
    </g>
    <g transform="matrix(.52227 0 0 .52227 -504.92 94.501)">
     <path d="m296.64 503.76h-1.92 4.08-2.16z" fill="#dcdcdc"/>
    </g>
    <g transform="matrix(.52227 0 0 .52227 -504.92 94.501)">
     <path d="m295.68 502.32h2.4-2.4z" fill="#dcdcdc"/>
    </g>
    <g transform="matrix(.52227 0 0 .52227 -504.92 94.501)">
     <path d="m235.92 496.8h0.96-1.68 0.72z" fill="#dcdcdc"/>
    </g>
    <g transform="matrix(.52227 0 0 .52227 -504.92 94.501)">
     <path d="m235.92 496.8h0.96-1.68 0.72z" fill="#dcdcdc"/>
    </g>
    <g transform="matrix(.52227 0 0 .52227 -504.92 94.501)">
     <path d="m500.64 257.76v-0.96 0.96z" fill="#dcdcdc"/>
    </g>
    <g transform="matrix(.52227 0 0 .52227 -504.92 94.501)">
     <path d="m500.4 310.56v-0.24 0.48-0.24z" fill="#dcdcdc"/>
    </g>
    <g transform="matrix(.52227 0 0 .52227 -504.92 94.501)">
     <path d="m500.64 257.76v-0.96 0.96z" fill="#dcdcdc"/>
    </g>
    <g transform="matrix(.52227 0 0 .52227 -504.92 94.501)">
     <path d="m75.599 256.32v-0.24 0.24z" fill="#dcdcdc"/>
    </g>
    <g transform="matrix(.52227 0 0 .52227 -504.92 94.501)">
     <g clip-path="url(#i)">
      <text transform="matrix(1 0 0 -1 408.32 40.076)"><tspan x="0" y="0" fill="#000000" font-family="Liberation Serif" font-size="13.92px">km</tspan></text>
     </g>
    </g>
    <g transform="translate(-449.18)">
     <g transform="matrix(.7933 0 0 .7933 494.59 47.511)">
      <g transform="matrix(1.25 0 0 1.25 -54.276 -146.39)">
       <path d="m2436.9-904.62 11.599-13.148 0.7194 8.0503-12.319 5.098zm-189.07-41.622-3.8279-1.9936 10.964-1.1981-7.136 3.1917zm-9.8874 0.99111-21.649-1.2967-8.1336-1.1658-32.014-15.954-5.1826 1.9063 1.1552-4.7713-14.314-3.6169-1.1972-5.2289-6.4584 1.2418 0.7564-6.5143-6.9364 4.0632-1.1974-5.2289 7.7347-0.57721-5.3033-3.5296 3.7072-3.4423-13.158-8.3883 2.4313-4.1068-4.7048-0.9151-8.3702 12.527-9.4094-1.8303 2.6306-3.2353-5.382 1.0348 0.4778-2.8214-20.851 2.1892 5.8599-3.8562 6.7371-4.9347-6.1803-2.4512 12.718-3.3549-11.084-4.2378 16.425-6.7974 3.3868-9.7496-26.79 10.61-7.4562-3.1157 5.461-5.5992-7.8134 5.1416-2.1528 0.414-38.673 2.886-2.2318 4.9784-31.936-2.0486-6.2593 2.1133 2.5519 1.329-7.8132 5.1416-13.715-1.0024-7.0571-1.3727-4.4263-4.608 9.5671-7.2986 12.917-2.4835-5.7812-0.7082 16.105-13.105-14.193 1.8192 3.5077-4.3139-9.1682 9.0415-7.934-0.2944 0.9558-5.6427-26.711 6.0454-14.114-2.7455-4.5054-0.0435-19.974 1.1107 4.7419-13.65-2.5935-11.329-6.4585 1.2417 8.6902-6.22 1.9533-1.2854 0.3574-8.2572 7.3354-2.3202-0.719-8.0504 6.4585-1.2416 7.8135-5.1418-4.4263-4.6081 12.518-4.2264 1.7537-2.1569 7.614-6.0132 6.2591-2.113-0.7414-8.6012c140.74-29.722 344.94-13.467 450.3 37.287l1.2757 0.6646 3.35 4.815-4.7836 3.6493 8.3331 2.0372-14.193 1.8189-1.0763 0.207 17.447 1.4169-1.0764 0.207-6.6581 0.3703 1.1002 9.5224 13.048 5.4524 0.5881 0.1145 1.2759 0.6644-3.0298 1.4924-8.732-3.7802-9.8874 0.9911-4.3057 0.8278-21.807 7.8322-0.2783 3.6927-42.947-7.3268-10.486-1.6234-8.2124 3.3987-4.2769-9.4781-3.7072 3.4424-7.5556-1.7312-5.7813-0.7083-12.367-2.3194-7.456-3.1156-23-7.0791-8.6113 1.6555-12.838-2.0808-15.149 7.4618-3.4289-0.2506-0.6774 1.9499-12.439-0.338-12.791 9.5469-11.37 7.0681 12.681 11.21 1.197 5.229-1.1965 18.386 2.7514 2.2005 4.227 3.7366 8.8526 9.2161-6.2591 2.1132-1.0279 15.186 8.8526 9.2161 15.432 13.41 4.4653 0.2788-3.5884-1.3572 1.3546-3.8999 7.9341 0.29425-4.0922 5.0328 8.7182 0.44678-3.5077 4.3138zm-56.173-8.58-2.074-4.1505 6.1802 2.4511-4.1062 1.6993zm-5.7813-0.70818-7.456-3.1157 8.8109-0.78418 1.0764-0.20695-2.4313 4.1068zm-32.297-18.356-9.7296-8.1377 6.8575 0.50121 2.8721 7.6364zm-180.82-53.491 5.4611-5.599 8.4119-2.5273-3.5078 4.3138-10.365 3.8125z" fill="#b9b9b9"/>
       <g transform="translate(280.8,501.6)">
        <path d="m0 0h0.48-1.2 0.72" fill="#dcdcdc"/>
       </g>
       <g transform="translate(280.8,501.6)">
        <path d="m0 0h0.48-1.2 0.72" fill="#dcdcdc"/>
       </g>
       <g transform="translate(295.92,503.76)">
        <path d="m0 0h2.16-0.48 2.16-3.84" fill="#dcdcdc"/>
       </g>
       <g transform="translate(291.84,350.4)">
        <path d="m0 0h0.24-0.24" fill="#dcdcdc"/>
       </g>
       <g transform="translate(258.48,178.8)">
        <path d="m0 0v0.24-0.24" fill="#fff"/>
       </g>
       <g transform="translate(356.88,106.56)">
        <path d="m0 0h-0.24 0.24" fill="#dcdcdc"/>
       </g>
       <g transform="translate(289.2,114.72)">
        <path d="m0 0v1.44-1.44" fill="#dcdcdc"/>
       </g>
      </g>
     </g>
    </g>
   </g>
   <path transform="matrix(.078477 0 0 .078477 .0094588 .011732)" d="m233.53 3.1606c-269.17 63.073-141.79 560.91 78.578 541.72" fill="none" stroke="#000" stroke-linejoin="round" stroke-opacity=".46667" stroke-width=".3"/>
   <path d="m19.81 0.12185c-6.1416 3.003-4.0186 39.802 2.4164 42.886" fill="none" stroke="#000" stroke-linejoin="round" stroke-opacity=".46667" stroke-width=".023543"/>
   <path d="m23.162 0.063572c8.5599 7.5936 2.2063 42.105-2.1127 42.944" fill="none" stroke="#000" stroke-linejoin="round" stroke-opacity=".46667" stroke-width=".023543"/>
   <path d="m25.649 0.41672c19.633 5.3421 10.342 43.881-6.9514 42.375" fill="none" stroke="#000" stroke-linejoin="round" stroke-opacity=".46667" stroke-width=".023543"/>
   <path d="m38.785 8.7779c10.065 17.142-5.7565 38.652-24.406 32.96" fill="none" stroke="#000" stroke-linejoin="round" stroke-opacity=".46667" stroke-width=".023543"/>
   <path transform="matrix(.078477 0 0 .078477 .0094588 .011732)" d="m55 111.7c-128.25 218.43 73.352 492.53 311 420" fill="none" stroke="#000" stroke-linejoin="round" stroke-opacity=".46667" stroke-width=".3"/>
   <path d="m43.012 21.548c0.058838-7.3821-4.0106-14.606-10.354-18.371-6.3971-3.9517-14.881-4.1293-21.441-0.45678-6.5378 3.5134-10.966 10.656-11.125 18.088-0.37923 7.8312 4.0186 15.648 10.879 19.42 6.5106 3.7802 15.028 3.7047 21.472-0.19087 6.474-3.7254 10.624-11.017 10.569-18.49z" fill="none" stroke="#aaa" stroke-miterlimit="10" stroke-width=".11928"/>
   <path transform="matrix(.078477 0 0 .078477 .0094588 .011732)" d="m289.56 128.15-0.17678 3.7123-0.35355 0.70711 0.35355 0.88388-0.53033 3.3588" fill="none" stroke="#fff" stroke-linejoin="round" stroke-width=".5"/>
   <path transform="matrix(.4675 .10351 -.10331 .46805 -16.505 -58.341)" d="m158.39 145.58a44.901 44.901 0 0 1-44.901 44.901 44.901 44.901 0 0 1-44.901-44.901 44.901 44.901 0 0 1 44.901-44.901 44.901 44.901 0 0 1 44.901 44.901z" fill="url(#j)" opacity=".25941"/>
   <path d="m15.549 17.129 0.10277 0.12757v0.060244l0.035436 0.031893-0.049612 0.070874-0.088593 0.003544-0.060244-0.053156 0.10631-0.046069-0.046068-0.099224-0.017719 0.053157-0.060244-0.046069 0.063788-0.010631-0.060243-0.056699 0.074418-0.035438z" fill="#346733"/>
   <path d="m15.658 17.191 0.057632 0.070162 0.012529-0.050116-0.070161-0.020046z" fill="#346733"/>
   <path d="m15.721 17.311 0.037587-0.040093 0.065151 0.047611-0.037587 0.042598-0.065151-0.050116z" fill="#346733"/>
   <path d="m15.941 17.384 0.04761-0.060139 0.025058 0.017541-0.072668 0.042598z" fill="#346733"/>
   <path d="m15.716 17.048 0.020047 0.037587 0.027564-0.01754-0.047611-0.020047z" fill="#346733"/>
   <path d="m15.781 17.462-0.045103 0.007519 0.010023 0.035081 0.03508-0.0426z" fill="#346733"/>
  </g>
 </g>
</svg>
